<?xml version="1.0" encoding="UTF-8"?>
<svg id="_레이어_2" data-name="레이어 2" xmlns="http://www.w3.org/2000/svg" viewBox="0 0 250.88 250.88">
  <defs>
    <style>
      .cls-1 {
        fill: #fdf5e0;
      }

      .cls-2 {
        fill: #9d9793;
      }
    </style>
  </defs>
  <g id="_레이어_1-2" data-name="레이어 1">
    <circle class="cls-1" cx="125.44" cy="125.44" r="125.44"/>
    <g>
      <path class="cls-2" d="M181.01,107.96c-25.01,7.27-58.01,7.88-83.77,5.15-11.67-1.23-36.16-5.01-43.99-13.98-1.92-2.2-2.1-5.23-.3-7.57,6.42-8.39,28.18-12.34,38.47-13.71,20.74-2.76,41.54-2.94,62.35-.74,11.92,1.26,28.23,4.07,38.64,9.77,4.02,2.2,9.23,6.77,5.67,11.66-3.47,4.76-11.42,7.77-17.07,9.41ZM161.17,102.82c5.52-.82,19.8-3.81,23.36-7.77-5.45-4.55-19.48-7.16-26.35-8.08-21.66-2.91-43.47-2.87-65.14-.04-6.96.91-21.13,3.53-26.71,8.12,4.33,4.22,18.13,7.02,24.08,7.88,23.43,3.39,47.11,3.4,70.75-.1Z"/>
      <path class="cls-2" d="M209.49,152.44c-.99-1.17-2.15-2.07-3.48-3.08l-5.41-43.31c-10.18,7.84-24.79,10.61-37.19,12.73-26.13,3.76-52.5,3.66-78.6-.38-11.6-2.09-25.04-4.97-34.54-12.33l-5.4,43.28c-1.33,1.03-2.48,1.92-3.48,3.09-1.81,2.11-1.56,4.99.31,7.02,4.59,4.98,14.63,7.96,21.28,9.55,27.66,6.65,63.71,7.37,92.02,5.05,13.29-1.09,45.18-4.75,54.21-14.62,1.84-2.02,2.07-4.89.29-7.01ZM130.61,130.37c1.62-.77,3.47-.34,4.59,1.07,2.57,3.21,1.2,9.27-2.6,11.08-1.62.77-3.39.38-4.53-.94-2.69-3.11-1.38-9.35,2.54-11.2ZM115.66,131.33c1.1-1.2,2.78-1.56,4.27-.86,3.88,1.81,4.92,8.27,2,11.15-1.91,1.89-4.6,1.13-6.15-.88-2.03-2.64-2.4-6.93-.12-9.41ZM109.51,150.27c-2.06-1.01-3.17-3.08-3.58-5.26v-1.57c.27-1.41.89-2.78,2.28-3.41,1.2-.54,2.56-.35,3.69.38,2.49,1.61,3.7,4.82,2.82,7.64-.35,1.11-1.12,1.94-1.96,2.33-1.12.52-2.22.4-3.26-.11ZM133.83,165.74h-1.68c-3.79-.73-6.11-2.21-10.22-1.04-1.59.45-2.86.77-4.35,1.04h-1.34c-.81-.15-1.63-.41-2.33-.9-2.92-2.04-3.11-5.62-1.53-8.66.72-1.39,1.75-2.46,2.91-3.49,3.73-3.33,5.04-9.22,10.25-8.73,1.79.17,3.32.94,4.44,2.36,2.47,3.13,2.14,3.99,5.64,7.2,1.46,1.34,2.48,3.01,2.95,4.89.88,3.52-1.31,6.65-4.74,7.34ZM144.92,144.9c-.43,2.14-1.54,4.12-3.51,5.2-1.06.58-2.22.81-3.37.42-1.33-.45-2.22-1.61-2.47-3.04-.5-2.88.99-5.87,3.58-7.22,1.16-.61,2.46-.7,3.6-.16,1.32.62,1.87,1.89,2.16,3.23v1.57Z"/>
    </g>
  </g>
</svg>