<?xml version="1.0" encoding="UTF-8"?>
<svg id="_레이어_2" data-name="레이어 2" xmlns="http://www.w3.org/2000/svg" viewBox="0 0 98.39 98.5">
  <defs>
    <style>
      .cls-1 {
        fill: #ef7d40;
      }
    </style>
  </defs>
  <g id="_레이어_1-2" data-name="레이어 1">
    <g>
      <path class="cls-1" d="M40.09,71.26l2.33-15.55c1.34-8.98,1.03-17.68-4.26-25.44,3.28-2.27,6.48-4.29,9.95-6.05,15.56,19.09,25.06,41.99,27.6,66.51-10.3,6.64-22.78,9.11-34.78,7.06-1.9-8.85-2.07-17.54-.84-26.54Z"/>
      <path class="cls-1" d="M98.39,52.28c-.89,13.89-7.56,26.85-18.68,35.62-3.01-24.18-12.36-46.48-27.62-65.56,2.11-1.02,4.25-1.85,6.57-2.73,2.7,3,5.77,5.36,9.17,7.6l9.83,5.72c8.39,4.72,15.42,11.23,20.73,19.36Z"/>
      <path class="cls-1" d="M35.5,73.99c-.78,7.78-.61,15.06.84,22.77-12.35-3.33-22.72-11.32-29.33-22.19,4.68-16.38,14.23-30.87,27.67-41.63,4.69,6.3,4.65,14.83,3.47,22.39-1.01,6.24-1.97,12.17-2.65,18.66Z"/>
      <path class="cls-1" d="M31.93,29.65c-12.87,10.36-22.25,23.74-27.73,39.45-6.22-14-5.46-30,1.76-43.4,4.67-.93,9.29-1.58,14.02-1.24,4.43.42,8.62,1.84,11.95,5.18Z"/>
      <path class="cls-1" d="M79.28,28.96c-5.4-2.91-11.89-6.41-16.03-10.78,7.1-2.08,14.04-3.05,21.38-3.22,7.72,8.05,12.62,18.38,13.63,29.79-5.31-6.57-11.54-11.77-18.98-15.79Z"/>
      <path class="cls-1" d="M35.4,27.03c-7.34-7.26-16.33-7.54-26.27-6.29,4.73-6.9,11.32-12.28,19.01-16,6.22,4.86,11.94,10.18,17.09,16.13-3.51,1.96-6.58,3.83-9.82,6.16Z"/>
      <path class="cls-1" d="M55.96,15.99l-6.76,2.86c-5.05-5.87-10.51-11.03-16.44-15.99C38.98.61,45.2-.23,51.74.05c-.37,5.62.94,11.02,4.22,15.94Z"/>
      <path class="cls-1" d="M80.02,10.81c-6.73.66-13.28,1.71-19.79,3.8-3.11-4.04-4.61-9.08-4.16-14.16,8.84,1.3,16.88,4.65,23.95,10.35Z"/>
    </g>
  </g>
</svg>