<?xml version="1.0" encoding="UTF-8"?>
<svg id="_레이어_2" data-name="레이어 2" xmlns="http://www.w3.org/2000/svg" viewBox="0 0 116.25 95.18">
  <defs>
    <style>
      .cls-1 {
        fill: #ef7d40;
      }
    </style>
  </defs>
  <g id="_레이어_1-2" data-name="레이어 1">
    <g>
      <path class="cls-1" d="M100.56,0c8.45,1.01,14.77,7.38,15.69,15.84v6.98c-.94,9.17-8.53,16.06-17.89,15.87-7.08-.14-12.87,5.7-12.88,12.75v5.67c1.34.43,2.5.91,3.71,1.65,4.35,2.68,8.04,6.24,10.77,10.56,1.99,3.14,3.47,7.17,2.62,10.86-.68,2.95-3.05,4.92-6.08,5.19-4.76.43-9.68-2.56-13.31-5.6-3.54,2.82-8.32,5.63-13,5.55-3.51-.06-6.23-2.54-6.64-6.03-.62-5.38,3.45-11.46,7.01-15.26,2.69-2.87,6.67-5.85,10.46-6.92l.02-6.23c.03-9.47,8.19-16.9,17.63-16.69,6.94.15,13.04-5.27,13.06-12.25v-4.92c.02-5.08-3.19-9.54-7.65-11.47-4.77-2.06-10.52-1.15-14.08,2.65l-24.61,26.25,3.49,3.49c.94.95.97,2.38-.04,3.34l-42.43,42.43-14.94-14.93L53.83,26.41c1-1.13,2.49-1.05,3.5-.04l4.91,4.92,23.86-25.53c3.08-3.3,7-5.28,11.41-5.76h3.05ZM70.12,80.85c1.29.06,2.45-.19,3.62-.56,1.87-.7,3.57-1.62,5.26-2.87-3.61-1.65-5.89-4.9-6.41-8.93-2.26,2.48-5.01,7.1-4.53,10.5.2,1.07.89,1.75,2.06,1.86ZM96.4,80.83c1.12-.19,1.72-.88,1.89-1.91.43-3.32-2.17-7.77-4.39-10.26-.52,4.02-2.88,7.16-6.47,8.75,2.41,1.8,5.93,3.7,8.97,3.41Z"/>
      <path class="cls-1" d="M12.21,95.18h-2.03c-5.31-.92-9.33-5.01-10.17-10.32v-1.89c.4-2.06,1.18-3.86,2.64-5.37l5.73-5.72,14.93,14.93-5.88,5.86c-1.46,1.45-3.29,2.12-5.21,2.51Z"/>
    </g>
  </g>
</svg>