<?xml version="1.0" encoding="UTF-8"?>
<svg id="_레이어_2" data-name="레이어 2" xmlns="http://www.w3.org/2000/svg" viewBox="0 0 115.13 115.13">
  <defs>
    <style>
      .cls-1 {
        fill: #ef7d40;
      }
    </style>
  </defs>
  <g id="_레이어_1-2" data-name="레이어 1">
    <g>
      <path class="cls-1" d="M58.15,0c.48.36,1.19.67,1.2,1.41l.04,3.94c27.36.94,49.44,23.02,50.37,50.38l3.96.03c.72,0,1.07.63,1.41,1.11v1.25c-.37.53-.67,1.24-1.64,1.24l-3.72.02c-.94,27.36-23.02,49.43-50.37,50.36l-.02,3.85c0,.79-.64,1.21-1.23,1.52h-1.14c-.51-.32-1.21-.67-1.22-1.41l-.04-3.96c-27.36-.94-49.43-22.99-50.38-50.37H1.88c-.93,0-1.52-.43-1.88-1.23v-1.17c.33-.52.65-1.19,1.41-1.2l3.95-.04C6.28,28.39,28.38,6.28,55.74,5.36l.03-3.95c0-.7.63-1.06,1.09-1.41h1.29ZM28.65,27.96c7.29-7.12,16.88-11.31,27.1-11.75v-7.16c-12.25.43-23.89,5.56-32.55,14.26-8.61,8.64-13.71,20.21-14.14,32.44l7.16-.02c.46-10.6,4.95-20.44,12.43-27.77ZM98.9,55.75h7.16c-.44-12.23-5.52-23.8-14.14-32.43-8.63-8.67-20.19-13.81-32.54-14.27v7.16c9.94.42,19.32,4.43,26.54,11.23,7.82,7.37,12.51,17.45,12.98,28.31ZM95.27,59.4l-3.52-.02c-1.04,0-1.77-.77-1.76-1.82,0-.84.58-1.77,1.52-1.78l3.76-.03c-.91-19.35-16.52-34.98-35.88-35.89l-.02,3.65c0,1.08-1.02,1.72-2,1.62s-1.61-.78-1.62-1.74v-3.53c-19.37.92-34.99,16.53-35.9,35.9l3.77.02c1,0,1.57.99,1.5,1.89-.08,1.06-.82,1.72-1.86,1.73h-3.41c.92,19.36,16.55,34.97,35.89,35.88l.03-3.74c0-.89.77-1.43,1.56-1.52,1.12-.12,2.04.61,2.05,1.74l.04,3.52c19.4-.94,34.95-16.6,35.85-35.87ZM55.74,98.9c-9.37-.4-18.1-3.94-25.1-9.93-8.69-7.46-13.94-18.16-14.42-29.59h-7.16c.47,13.05,6.24,25.33,15.9,34.1,8.46,7.68,19.34,12.18,30.8,12.58v-7.16ZM59.39,106.07c11.96-.45,23.15-5.28,31.7-13.44,9.08-8.7,14.5-20.53,14.98-33.23h-7.16c-.44,10.06-4.5,19.43-11.34,26.64-7.36,7.74-17.37,12.39-28.17,12.87v7.16Z"/>
      <path class="cls-1" d="M60.11,83.47c.74.73-.89,1.8-.88,2.88l-13.61-.02-.29-1.45c-.12-.61.34-1.35.74-1.79.73-.81.74-1.88,0-2.58s-1.88-.68-2.59.11c-1.32,1.47-2.07,3.33-1.63,5.47-2.69-.98-5.07-2.79-6.27-5.45s-1.56-5.69-.97-8.55c.48-2.31,1.46-4.38,2.64-6.37,2.24-3.79,5.81-6.38,10.09-7.42,1.96-.48,4.87-1.02,6.43-2.14,2.08-1.48-3.26-5.05-4.32-5.89-3.2-2.56-6.53-6.55-7.77-10.52-.78-2.5-.5-5.19.86-7.39,1.48-2.39,4.06-2.92,6.6-1.95.4,3.48,1.11,6.87,2.41,10.13.55,1.38,1.39,2.55,2.28,3.74,1.8,2.41,3.95,4.41,6.32,6.25.85.66,1.95.56,2.57-.21.68-.84.48-1.95-.36-2.59-2.67-2.04-6.34-5.59-7.58-8.72-.89-2.25-2.09-6.92-2.05-9.4,3.74-2.56,9.04,1.39,11.47,4.21s5.07,6.5,6.57,9.94c6.89,2.42,12.64,8.35,11.91,16.05-.32,3.41-2.95,5.7-5.98,6.82.48,3.06.69,5.9-.04,8.88-1.75-1.32-4.67-1.58-6.47-.94-.97.34-1.36,1.36-1.08,2.2.31.95,1.26,1.41,2.23,1.16s1.97-.22,2.83.28c2.25,1.31,3.41,4.44,1.77,6.59-.59.77-1.69,1.54-2.89,1.54l-9.87.02c.78-1.49.94-2.96.21-4.31-.61-1.13-1.63-1.9-2.77-2.51,1.6-3.54,1.64-7.3-1.31-10.07-2.17-2.03-5.5-3.23-8.43-3.59-1.02-.12-1.83.72-1.91,1.62-.08.96.57,1.77,1.58,1.92,2.14.32,4.22.98,5.92,2.28,2.73,2.1,1.65,5.26.17,7.73-.33.55-.45,1.14-.19,1.76.6,1.41,2.16.81,3.67,2.3ZM72.9,53.96c0-.98-.79-1.77-1.77-1.77s-1.77.79-1.77,1.77.79,1.77,1.77,1.77,1.77-.79,1.77-1.77Z"/>
    </g>
  </g>
</svg>