<?xml version="1.0" encoding="UTF-8"?>
<svg id="_레이어_2" data-name="레이어 2" xmlns="http://www.w3.org/2000/svg" viewBox="0 0 114.09 93.08">
  <defs>
    <style>
      .cls-1 {
        fill: #4d4c4c;
      }
    </style>
  </defs>
  <g id="_레이어_1-2" data-name="레이어 1">
    <g>
      <circle class="cls-1" cx="35.73" cy="74.04" r="4.2"/>
      <path class="cls-1" d="M111.12,45.28c-1.95-1.44-4.19-2.73-6.29-3.78-9.57-4.82-6.53-12.6-7.34-19.88-.55-4.9-5.18-7.3-9.91-6.31l1.24-6.81c.46-2.51-1.35-6.06-3.34-7.39-1.67-1.11-4.98-1.56-7.23-.53-16.27,7.44-12.54,13.66-23.49,12.01C34.12,9.47,7.58,20.49,1.05,39.93c-4.17,12.4,4.65,21.86,16.72,25.27-3.16,8.73-1.46,18.43,6.52,23.57,5.51,3.55,11.96,4.75,18.68,4.18,16.73-1.43,32.43-10.67,41.52-24.8,2.38-3.7,4.52-5.78,9.19-5.81,5.95-.03,12.29-1.71,17.42-5.18,4.08-2.75,3.87-9.04.02-11.88ZM14.93,50.43c-2.5,0-4.53-2.03-4.53-4.53s2.03-4.53,4.53-4.53,4.53,2.03,4.53,4.53-2.03,4.53-4.53,4.53ZM109.04,52.18c-3.41,4.09-10.1,5.27-15.12,5.35-6.57.11-10.26,2.98-13.6,8.25-10.12,15.95-34.96,27.99-51.31,20.33-5.5-2.58-8.57-7.94-8-14.01,1.67-17.87,24.41-33.27,42.77-34.01,6.43-.26,10.8-1.84,14.49-7.59,2.6-4.06,6.99-8.85,11.64-10.54,2.52-.92,3.57,3.89,3.19,5.83-1.88,9.71,3.46,17.83,11.78,21.05,1.83.71,5.6,3.63,4.16,5.36Z"/>
    </g>
  </g>
</svg>