<?xml version="1.0" encoding="UTF-8"?>
<svg id="_레이어_2" data-name="레이어 2" xmlns="http://www.w3.org/2000/svg" viewBox="0 0 114.26 101.53">
  <defs>
    <style>
      .cls-1 {
        fill: #4d4c4c;
      }

      .cls-2 {
        fill: #fff;
        stroke: #fff;
        stroke-miterlimit: 10;
        stroke-width: 2px;
      }
    </style>
  </defs>
  <g id="_레이어_1-2" data-name="레이어 1">
    <g>
      <path class="cls-1" d="M103.37,55.49l10.15,23.97c2.14,5.06-.55,10.47-5.3,12.96-6.22,3.26-12.69,5.26-19.82,6.49-23.26,4.01-61.28,4.52-82.39-6.46-5.1-2.65-7.39-8.24-5.14-13.55l9.79-23.16c1.91-4.52,17.14-6.98,21.97-7.54,1.32-.15,3.22,1.9,3.26,3.06.18,5.88-11.42,3.14-18.46,7.54,17.75,7.02,61.61,7.01,79.37,0-6.82-4.35-19.08-1.75-18.72-7.55.08-1.27,1.92-3.25,3.39-3.08,4.49.55,20.08,3.03,21.9,7.32Z"/>
      <path class="cls-1" d="M78.13,37.24c1.02,12.92-8.83,23.12-21.03,23.15-12.22.03-21.98-10.32-21.04-22.89,1.1-14.82,10.06-28.05,21.16-37.51,10.91,9.91,19.75,22.42,20.92,37.24ZM69.82,36.16c1.91.04,2.33-1.74,2.3-3.07-.02-.95-1.37-2.33-2.53-2.12-.91.17-1.66,2.01-1.65,2.81,0,.67,1.1,2.36,1.88,2.38ZM70.44,39.02c-3.63-.7-.91,5.33-8.21,9.92-.66.41-.84,2.46-.33,2.99,3.55,3.68,14.02-11.85,8.54-12.91Z"/>
      <path class="cls-2" d="M70.44,39.63c5.48,1.05-4.98,16.59-8.54,12.91-.51-.53-.33-2.58.33-2.99,7.3-4.58,4.58-10.61,8.21-9.92Z"/>
      <path class="cls-2" d="M69.69,36.09c-.76-.18-1.48-2.06-1.35-2.71.16-.79,1.27-2.43,2.19-2.41,1.18.03,2.21,1.66,2.04,2.6-.24,1.3-1.02,2.96-2.88,2.53Z"/>
    </g>
  </g>
</svg>