<?xml version="1.0" encoding="UTF-8"?>
<svg id="_레이어_2" data-name="레이어 2" xmlns="http://www.w3.org/2000/svg" viewBox="0 0 261.26 270.45">
  <defs>
    <style>
      .cls-1 {
        fill: #ffad80;
      }
    </style>
  </defs>
  <g id="_레이어_1-2" data-name="레이어 1">
    <g>
      <path class="cls-1" d="M132.45,269.7l-10.79-4.26c-22.48-14.29-33.6-29.7-62.98-32.59-11.37-1.12-20.35-2.32-30.54-4.37l-8.63-3.41c-4.85-3.02-9.4-6.76-12.66-11.7-13.56-20.47-5.68-43.96,12.15-59.48,8.16-7.11,17.48-11.33,27.55-15.03,32.4-11.93,55.77-46.37,87.94-30.03,11.05,5.61,18.93,14.45,22.52,26.42,7.9,26.36,3.63,31.08,17.98,60.54,5.98,12.28,8.26,25.61,6.52,38.85-3.28,24.87-25.3,39.37-49.05,35.07Z"/>
      <path class="cls-1" d="M260.52,153.98l-3.98,10.07c-8.17,12.69-20.35,22.58-35.72,24.52-8.24,1.04-16.33-.43-22.69-5.83-7.39-6.27-10.18-16-8.14-25.82,4.1-19.74,21.28-35.14,41.28-37.29,9.02-.97,17.55,1.77,23.55,8.14,6.92,7.35,7.22,16.91,5.71,26.21Z"/>
      <path class="cls-1" d="M5.93,65.84l3.98-10.07c5.3-8.41,12.8-15.61,23.32-16.13,9.08-.45,17.36,4.26,22.76,11.79,11.94,16.65,11.52,40.34-1.26,56.25-5.04,6.28-12.12,9.64-18.49,9.99-8.51.48-15.29-3.08-20.68-8.99-10.69-11.71-12.55-27.8-9.62-42.84Z"/>
      <path class="cls-1" d="M183.5,117.47c-12.37.83-22.75-6.17-26.72-17.52-9.37-26.82,14.89-63.57,44.72-65.51,12.38-.81,23.12,6.61,26.8,18.51,8.37,27.11-15.81,62.57-44.8,64.53Z"/>
      <path class="cls-1" d="M117.27,84.67c-17.07,7.26-32.4-4.39-37.27-21.27-6.36-22.09,2.2-50.56,23.09-60.74,10.13-4.94,21.82-2.94,29.6,5.3,20.3,21.48,10.62,65.62-15.43,76.7Z"/>
    </g>
  </g>
</svg>