<?xml version="1.0" encoding="UTF-8"?>
<svg id="_레이어_2" data-name="레이어 2" xmlns="http://www.w3.org/2000/svg" viewBox="0 0 162.98 129.8">
  <defs>
    <style>
      .cls-1 {
        fill: #fff;
      }
    </style>
  </defs>
  <g id="_레이어_1-2" data-name="레이어 1">
    <g>
      <path class="cls-1" d="M162.98,64.64v2.11l-7.34,8.9c-1.44.96-2.99,1.03-4.37-.12L81.48,17.35,11.5,75.67c-1.5,1.25-3.46.74-4.61-.49l-6.07-7.27c-1.28-1.54-1.03-3.6.54-4.91L73.9,2.62c4.23-3.52,10.96-3.45,15.1-.01l24.76,20.55.09-19.58c0-1.89,1.41-3.18,3.29-3.23h19.37c1.94.15,3.2,1.45,3.2,3.45v41.02s22.25,18.51,22.25,18.51c.31.26.8,1.08,1.01,1.31Z"/>
      <path class="cls-1" d="M94.43,90.99l-25.89-.02v38.84s-38.29,0-38.29,0c-3.89.11-6.92-2.75-7-6.69v-48.89s58.24-47.99,58.24-47.99l58.24,48v49.21c-.23,3.37-2.54,5.76-5.81,6.36h-39.48s0-38.81,0-38.81Z"/>
    </g>
  </g>
</svg>