<?xml version="1.0" encoding="UTF-8"?>
<svg id="_레이어_2" data-name="레이어 2" xmlns="http://www.w3.org/2000/svg" viewBox="0 0 148.01 77.8">
  <defs>
    <style>
      .cls-1 {
        fill: #ef7d40;
      }
    </style>
  </defs>
  <g id="_레이어_1-2" data-name="레이어 1">
    <g>
      <path class="cls-1" d="M147.35,53.57c-2.34,0-4.24-1.9-4.24-4.24s1.9-4.24,4.24-4.24c.22,0,.44.03.65.07-1.71-4.69-6.63-8.1-11.72-8.66-12.12-1.34-17.22,12.45-34.34,10.19-.08-.01-.16-.03-.24-.04.02.18.05.35.05.54,0,2.34-1.9,4.24-4.24,4.24s-4.24-1.9-4.24-4.24c0-1.38.67-2.59,1.69-3.37-2.07-1.37-4-3.04-5.84-4.62-6.65-5.7-11.87-9.66-19.7-8.98-7.83.67-15.55,4.86-19.38,11.72-1.77,3.16-1.58,9.09-.05,12.37,1.57,3.34,8.45,9.76,11.8,11.75,9.26,5.51,26.31,10.58,43.79,10.92-.21-.5-.32-1.04-.32-1.61,0-2.34,1.9-4.24,4.24-4.24s4.24,1.9,4.24,4.24c0,.49-.1.95-.25,1.39,5.63-.46,11.4-1.63,16.03-4.05,8.55-4.47,14.37-10.7,17.6-17.67.23-.49.43-.99.62-1.5-.13.01-.25.04-.38.04ZM68.45,47.18c-2.34,0-4.24-1.9-4.24-4.24s1.9-4.24,4.24-4.24,4.24,1.9,4.24,4.24-1.9,4.24-4.24,4.24ZM78.32,67.58c-2.34,0-4.24-1.9-4.24-4.24s1.9-4.24,4.24-4.24,4.24,1.9,4.24,4.24-1.9,4.24-4.24,4.24ZM124.23,63.34c-2.34,0-4.24-1.9-4.24-4.24s1.9-4.24,4.24-4.24,4.24,1.9,4.24,4.24-1.9,4.24-4.24,4.24Z"/>
      <path class="cls-1" d="M48.19,55.16c-1.72-3.67-2.09-10.25.11-14.19,3.96-7.09,11.98-11.97,20.95-12.74.63-.05,1.27-.08,1.88-.08,4.51,0,8.19,1.41,11.8,3.73,3.26-1.88,6.13-4.37,8.07-7.57,9.1-14.94-8.2-27.29-22.11-23.67-4.53,1.18-8.42,3.68-11.89,6.82,1.76.51,3.06,2.12,3.06,4.05,0,2.34-1.9,4.24-4.24,4.24-1.88,0-3.45-1.23-4.01-2.91-1.66,1.93-3.23,3.94-4.75,5.92-5,6.53-10.36,13.43-17.53,17.14.77.77,1.25,1.83,1.25,3.01,0,2.34-1.9,4.24-4.24,4.24s-4.24-1.9-4.24-4.24c0-.18.03-.36.05-.54-3.34.69-6.76,1.05-9.95,2.26-5.45,2.07-9.89,6.72-11.61,12.29-1.72,5.57-.67,11.96,2.85,16.62,3.74,4.96,9.92,7.72,16.12,8.19s12.4-1.16,18.07-3.68c4-1.78,7.87-4.05,10.79-7.31,1.57-1.75,2.82-3.75,3.93-5.87-1.96-2.03-3.64-4.1-4.39-5.7ZM84.09,7.27c2.34,0,4.24,1.9,4.24,4.24s-1.9,4.24-4.24,4.24-4.24-1.9-4.24-4.24,1.9-4.24,4.24-4.24ZM24.85,71.33c-2.34,0-4.24-1.9-4.24-4.24s1.9-4.24,4.24-4.24,4.24,1.9,4.24,4.24-1.9,4.24-4.24,4.24Z"/>
    </g>
  </g>
</svg>