<?xml version="1.0" encoding="UTF-8"?>
<svg id="_레이어_2" data-name="레이어 2" xmlns="http://www.w3.org/2000/svg" viewBox="0 0 745.28 114.4">
  <defs>
    <style>
      .cls-1 {
        fill: #4d4c4c;
      }
    </style>
  </defs>
  <g id="_레이어_1-2" data-name="레이어 1">
    <g>
      <path class="cls-1" d="M5.13,19.44c-.35-.21-.63-.5-.84-.85-.21-.36-.32-.75-.32-1.17s.11-.81.32-1.17c.21-.36.49-.63.84-.84s.73-.3,1.14-.3c.43,0,.83.1,1.19.3.36.2.65.48.85.84s.3.75.3,1.17-.1.81-.3,1.17-.49.64-.85.85c-.37.21-.76.32-1.19.32-.41,0-.79-.11-1.14-.32Z"/>
      <path class="cls-1" d="M30.17,20.95h-10.19V6.63h10.19v14.32ZM21.53,19.63h7.06V7.93h-7.06v11.69ZM36.23,26.74h-1.61V4.33h1.61v22.41ZM40.1,14.84h-4.27v-1.4h4.27v1.4Z"/>
      <path class="cls-1" d="M61.98,23.82h-20.52v-1.37h20.52v1.37ZM51.03,13.49c-.83,1.15-1.92,2.08-3.26,2.81-1.34.72-2.79,1.25-4.37,1.57l-.66-1.27c1.41-.25,2.73-.7,3.96-1.34,1.24-.64,2.24-1.45,3.01-2.44.77-.99,1.15-2.08,1.15-3.28v-.5h1.41v.5c0,1.49-.42,2.81-1.25,3.95ZM59.95,9.42h-16.53v-1.36h16.53v1.36ZM52.46,8.54h-1.56v-3.68h1.56v3.68ZM52.46,23.18h-1.56v-6.13h1.56v6.13ZM53.65,12.81c.78.99,1.78,1.8,3,2.44,1.23.64,2.54,1.08,3.94,1.34l-.65,1.27c-1.56-.32-3.01-.84-4.34-1.57-1.34-.72-2.43-1.66-3.27-2.81-.84-1.15-1.26-2.46-1.26-3.95v-.5h1.42v.5c0,1.19.39,2.29,1.16,3.28Z"/>
      <path class="cls-1" d="M74.33,12.85c-.73,1.92-1.86,3.69-3.4,5.31-1.54,1.62-3.49,3.02-5.84,4.18l-.89-1.27c2.11-1.05,3.88-2.29,5.31-3.73s2.52-3.02,3.24-4.76c.73-1.74,1.09-3.6,1.09-5.57v-.24h1.57c0,2.13-.36,4.16-1.09,6.07ZM74.67,8.15h-9.5v-1.37h9.5v1.37ZM81.17,26.74h-1.61V4.33h1.61v22.41ZM84.94,14.98h-4.2v-1.36h4.2v1.36Z"/>
      <path class="cls-1" d="M113.09,16.71h-20.4v-1.33h20.4v1.33ZM107.06,5.43c1.18.33,2.09.82,2.72,1.46.63.64.95,1.39.95,2.27s-.32,1.61-.95,2.24c-.63.63-1.54,1.11-2.72,1.45-1.18.33-2.57.5-4.18.5s-2.99-.17-4.18-.5c-1.18-.33-2.09-.82-2.73-1.45-.63-.63-.95-1.38-.95-2.24s.32-1.63.95-2.27c.63-.64,1.54-1.12,2.73-1.46,1.19-.33,2.58-.5,4.18-.5s3,.17,4.18.5ZM107.03,19.25c1.15.3,2.03.75,2.63,1.33.61.59.91,1.31.91,2.16s-.3,1.55-.91,2.15c-.61.6-1.49,1.05-2.63,1.36-1.15.31-2.52.46-4.13.46s-2.99-.15-4.14-.46c-1.16-.31-2.04-.76-2.65-1.36-.61-.6-.91-1.31-.91-2.15s.3-1.58.91-2.16c.61-.59,1.49-1.03,2.65-1.33,1.15-.3,2.54-.45,4.14-.44,1.61,0,2.99.14,4.13.44ZM99.61,6.6c-.94.23-1.67.57-2.18,1.01s-.77.96-.77,1.55.26,1.11.77,1.54c.51.44,1.23.77,2.16,1,.93.23,2.03.35,3.29.36,1.25,0,2.35-.13,3.29-.36.94-.23,1.66-.57,2.17-1,.51-.44.76-.95.76-1.54s-.26-1.11-.77-1.55c-.51-.44-1.24-.78-2.18-1.01-.94-.23-2.03-.35-3.28-.34-1.24,0-2.34.1-3.28.34ZM99.66,20.38c-.91.21-1.62.51-2.11.92-.49.41-.74.89-.74,1.45s.24,1.04.74,1.43c.49.4,1.19.7,2.11.91.91.21,1.99.31,3.24.31s2.32-.1,3.23-.31c.91-.21,1.61-.51,2.1-.92.49-.41.74-.88.74-1.42s-.24-1.04-.74-1.45c-.49-.41-1.19-.71-2.1-.92-.91-.21-1.99-.31-3.23-.31s-2.32.1-3.24.31Z"/>
      <path class="cls-1" d="M125.55,12.85c-.73,1.92-1.86,3.69-3.4,5.31-1.54,1.62-3.49,3.02-5.84,4.18l-.89-1.27c2.11-1.05,3.88-2.29,5.31-3.73s2.52-3.02,3.24-4.76c.73-1.74,1.09-3.6,1.09-5.57v-.24h1.57c0,2.13-.37,4.16-1.09,6.07ZM125.9,8.15h-9.5v-1.37h9.5v1.37ZM132.4,26.74h-1.61V4.33h1.61v22.41ZM136.17,14.98h-4.2v-1.36h4.2v1.36Z"/>
      <path class="cls-1" d="M158.11,16.16h-20.5v-1.31h20.5v1.31ZM155.5,22.76h-13.75v2.91h-1.61v-4.08h13.78v-2.17h-13.81v-1.24h15.4v4.58ZM156.25,26.39h-16.11v-1.22h16.11v1.22ZM155.41,9.52h-13.53v2.67h-1.57v-3.82h13.51v-2.07h-13.6v-1.19h15.2v4.42ZM155.82,12.95h-15.51v-1.21h15.51v1.21Z"/>
      <path class="cls-1" d="M179.64,9.37h-13.38v-1.36h13.38v1.36ZM175.87,12.07c.82.43,1.46,1.03,1.92,1.8s.69,1.65.69,2.64-.23,1.86-.69,2.63-1.1,1.37-1.92,1.8c-.82.43-1.75.64-2.8.64s-1.97-.21-2.79-.64c-.82-.43-1.46-1.03-1.93-1.8-.46-.77-.7-1.65-.7-2.63s.23-1.87.7-2.64c.47-.77,1.11-1.37,1.93-1.8.82-.43,1.75-.64,2.79-.64s1.98.21,2.8.64ZM171.07,13.27c-.59.32-1.05.76-1.39,1.33-.34.56-.51,1.2-.51,1.91s.17,1.33.51,1.89c.34.56.8,1,1.39,1.31.59.32,1.25.48,2,.48s1.41-.16,2-.48c.59-.32,1.05-.75,1.38-1.31.33-.56.5-1.19.5-1.89s-.17-1.35-.5-1.91c-.34-.56-.8-1.01-1.38-1.33s-1.25-.48-2-.48-1.41.16-2,.48ZM173.83,8.71h-1.59v-4.14h1.59v4.14ZM183.62,26.74h-1.61V4.33h1.61v22.41ZM187.49,15.06h-4.27v-1.35h4.27v1.35Z"/>
      <path class="cls-1" d="M209.25,23.41h-20.4v-1.36h20.4v1.36ZM205.67,8.05h-14.62v-1.33h14.62v1.33ZM198.65,22.78h-1.56v-8.82h1.56v8.82ZM206.61,12.28c-.03.87-.1,1.9-.21,3.08-.12,1.18-.29,2.46-.54,3.83l-1.65-.2c.26-1.31.46-2.55.58-3.71s.2-2.19.23-3.08.04-1.97.04-3.21v-2.26h1.6v2.26c0,1.33-.02,2.43-.04,3.3Z"/>
      <path class="cls-1" d="M220.19,20.4h-1.59V6.56h1.59v13.84ZM225.61,19.37c1.71-.16,3.47-.43,5.26-.81l.23,1.4c-1.85.37-3.65.63-5.39.79-1.74.15-3.53.23-5.38.23h-1.74v-1.37h1.74c1.8,0,3.56-.07,5.27-.23ZM234.85,26.74h-1.61V4.33h1.61v22.41ZM238.62,14.79h-4.2v-1.36h4.2v1.36Z"/>
      <path class="cls-1" d="M246.61,15.21c-.57,1.5-1.34,2.84-2.3,4.01-.96,1.17-2,2.07-3.12,2.69l-1.04-1.28c1.04-.53,2.02-1.33,2.95-2.38.92-1.05,1.66-2.25,2.21-3.59.55-1.34.83-2.67.83-3.99v-4.33h1.33v4.33c0,1.53-.29,3.05-.86,4.55ZM248.6,14.52c.56,1.28,1.3,2.42,2.22,3.42.92,1,1.9,1.75,2.94,2.25l-.96,1.32c-1.14-.6-2.2-1.46-3.16-2.59s-1.74-2.41-2.32-3.85c-.58-1.44-.87-2.91-.87-4.4v-4.33h1.31v4.33c0,1.29.28,2.58.84,3.86ZM257.74,13.5h-6.41v-1.32h6.41v1.32ZM258.53,26.77h-1.57V4.33h1.57v22.45Z"/>
      <path class="cls-1" d="M289.23,16.81h-20.4v-1.31h20.4v1.31ZM278.32,10.92c-.84.9-1.94,1.61-3.28,2.13-1.34.52-2.81.88-4.4,1.09l-.52-1.27c1.39-.14,2.7-.44,3.92-.88,1.23-.44,2.22-1.03,2.98-1.75.76-.72,1.14-1.54,1.14-2.46v-.34h1.41v.34c0,1.19-.42,2.24-1.26,3.14ZM287.13,7.91h-16.13v-1.33h16.13v1.33ZM283.19,19.73c1.14.28,2.01.7,2.62,1.25.61.55.91,1.23.91,2.01s-.3,1.44-.91,1.99c-.61.55-1.48.97-2.62,1.25-1.14.28-2.53.43-4.15.43s-2.99-.14-4.14-.43c-1.16-.28-2.04-.7-2.65-1.25s-.91-1.21-.91-1.99.3-1.46.91-2.01c.61-.55,1.49-.97,2.65-1.25,1.15-.28,2.54-.42,4.14-.42s3.01.14,4.14.42ZM275.79,20.83c-.91.19-1.62.47-2.1.84s-.73.81-.73,1.32.24.94.73,1.29,1.19.63,2.1.82c.91.19,1.99.29,3.26.29s2.33-.1,3.24-.29c.91-.19,1.61-.46,2.09-.82s.73-.79.73-1.29-.24-.95-.73-1.32-1.19-.65-2.09-.84c-.91-.19-1.99-.29-3.24-.29s-2.34.1-3.25.29ZM279.81,7.22h-1.57v-3h1.57v3ZM279.8,19.78h-1.56v-3.44h1.56v3.44ZM281.05,10.24c.76.72,1.75,1.31,2.98,1.75,1.22.45,2.52.74,3.9.88l-.5,1.27c-1.59-.2-3.06-.56-4.4-1.09-1.34-.52-2.43-1.23-3.27-2.13-.84-.9-1.26-1.95-1.26-3.14v-.34h1.4v.34c0,.91.38,1.73,1.14,2.46Z"/>
      <path class="cls-1" d="M311.78,17.63h-20.5v-1.33h20.5v1.33ZM295.56,25.31h-1.59v-5.19h1.59v5.19ZM309.48,26.2h-15.51v-1.36h15.51v1.36ZM295.65,8.11h11.78v-3.06h1.59v8.86h-14.96V5.05h1.59v3.06ZM307.43,12.58v-3.22h-11.78v3.22h11.78ZM302.44,22.28h-1.6v-5.36h1.6v5.36Z"/>
      <path class="cls-1" d="M327.89,9.39h-13.61v-1.33h13.61v1.33ZM323.98,12.07c.83.43,1.48,1.03,1.94,1.8.47.78.7,1.65.7,2.63s-.23,1.86-.7,2.63c-.46.77-1.11,1.37-1.94,1.8-.83.43-1.77.64-2.83.64s-2.02-.21-2.86-.64c-.84-.43-1.49-1.03-1.96-1.8-.47-.77-.7-1.65-.7-2.63s.23-1.87.7-2.64c.46-.77,1.12-1.37,1.96-1.8.84-.43,1.79-.64,2.86-.64s2,.21,2.83.64ZM319.09,13.27c-.61.32-1.08.76-1.43,1.33-.34.56-.51,1.2-.51,1.91s.17,1.33.51,1.89c.34.56.82,1,1.43,1.31.61.32,1.29.48,2.06.48s1.43-.16,2.03-.48c.6-.32,1.07-.75,1.41-1.31.34-.56.51-1.19.51-1.89s-.17-1.35-.51-1.91c-.34-.56-.81-1.01-1.41-1.33-.6-.32-1.28-.48-2.03-.48s-1.45.16-2.06.48ZM321.89,8.87h-1.61v-4.35h1.61v4.35ZM332.16,26.74h-1.61V4.33h1.61v22.41Z"/>
      <path class="cls-1" d="M363.04,14.75h-20.52v-1.36h20.52v1.36ZM360.46,20.07h-13.79v5.73h-1.61v-7.06h15.4v1.33ZM360.62,26.41h-15.56v-1.33h15.56v1.33ZM359.79,6.79h-14.64v-1.33h14.64v1.33ZM353.52,19.33h-1.59v-5.05h1.59v5.05ZM360.14,10.58c-.09,1.07-.29,2.29-.62,3.68l-1.56-.23c.23-.95.39-1.83.49-2.65s.17-1.54.19-2.15.04-1.33.04-2.17v-1.6h1.59v1.6c0,1.28-.04,2.45-.13,3.52Z"/>
      <path class="cls-1" d="M385.4,15.56h-20.4v-1.33h20.4v1.33ZM379.42,5.19c1.18.3,2.07.74,2.69,1.32.62.58.93,1.29.93,2.12s-.31,1.55-.93,2.13c-.62.58-1.51,1.03-2.69,1.33-1.18.3-2.59.46-4.23.47-1.64,0-3.05-.17-4.23-.47-1.18-.3-2.08-.75-2.7-1.33-.62-.58-.93-1.29-.93-2.13s.31-1.54.93-2.12c.62-.58,1.52-1.02,2.7-1.32,1.18-.3,2.59-.44,4.23-.44s3.05.15,4.23.44ZM382.74,22.5h-13.58v2.97h-1.59v-4.2h13.61v-2.3h-13.66v-1.26h15.22v4.79ZM383.45,26.44h-15.88v-1.31h15.88v1.31ZM371.89,6.3c-.93.21-1.65.52-2.14.92-.5.4-.74.87-.74,1.42s.24,1.04.74,1.44c.49.4,1.2.71,2.13.93.93.22,2.04.32,3.33.32s2.4-.11,3.33-.32c.94-.21,1.65-.53,2.14-.93.5-.41.74-.88.74-1.43s-.25-1.01-.76-1.41-1.22-.7-2.16-.92c-.94-.21-2.04-.32-3.31-.31-1.27,0-2.37.09-3.31.3Z"/>
      <path class="cls-1" d="M414.16,18.46h-20.4v-1.37h20.4v1.37ZM403.24,10.19c-.88,1.1-2.01,2-3.39,2.71-1.38.71-2.81,1.2-4.28,1.47l-.67-1.31c1.29-.19,2.58-.6,3.85-1.23,1.27-.62,2.32-1.39,3.15-2.32.83-.92,1.24-1.92,1.24-2.98v-1.36h1.41v1.36c0,1.34-.44,2.56-1.32,3.66ZM404.71,26.74h-1.56v-8.66h1.56v8.66ZM406.05,9.5c.84.94,1.9,1.71,3.19,2.34,1.28.62,2.55,1.03,3.81,1.23l-.66,1.31c-1.46-.27-2.88-.76-4.26-1.48-1.38-.72-2.51-1.62-3.4-2.72s-1.33-2.31-1.33-3.63v-1.36h1.38v1.36c0,1.04.42,2.03,1.26,2.96Z"/>
      <path class="cls-1" d="M431.87,6.36c.88.43,1.56,1.04,2.06,1.83.49.79.74,1.69.74,2.72s-.25,1.9-.74,2.68c-.5.78-1.18,1.38-2.06,1.82-.88.43-1.87.65-2.99.65s-2.11-.22-2.99-.65c-.88-.43-1.56-1.04-2.06-1.82-.49-.78-.74-1.67-.74-2.68s.25-1.92.74-2.71c.5-.79,1.18-1.4,2.06-1.83.88-.43,1.87-.65,2.99-.65s2.11.22,2.99.65ZM429.01,22.31c-.42.91-1.02,1.72-1.79,2.44-.77.72-1.67,1.28-2.71,1.69l-.82-1.21c.91-.36,1.72-.84,2.42-1.45.7-.61,1.25-1.28,1.65-2.02.4-.74.6-1.47.6-2.18v-1.38h1.28v1.38c0,.91-.21,1.82-.63,2.73ZM426.71,7.56c-.64.33-1.14.78-1.5,1.37-.36.59-.54,1.25-.54,1.97s.18,1.36.54,1.94c.36.58.86,1.03,1.5,1.36.64.33,1.37.5,2.18.51.81-.02,1.54-.19,2.18-.51.64-.33,1.14-.78,1.5-1.36.37-.58.55-1.23.55-1.94s-.18-1.39-.55-1.97c-.36-.59-.87-1.05-1.5-1.37-.64-.33-1.37-.49-2.18-.48-.81,0-1.54.15-2.18.48ZM430.39,21.86c.33.76.8,1.44,1.42,2.05.62.61,1.37,1.09,2.24,1.45l-.7,1.26c-1.01-.41-1.86-.98-2.56-1.71-.7-.74-1.23-1.57-1.57-2.49-.35-.92-.52-1.87-.52-2.83v-1.38h1.21v1.38c0,.76.16,1.52.49,2.28ZM437.46,22.23c-.36.92-.89,1.77-1.59,2.55-.7.78-1.54,1.39-2.51,1.83l-.71-1.26c.85-.39,1.58-.91,2.21-1.57.63-.66,1.1-1.36,1.43-2.11.33-.75.49-1.45.49-2.09v-1.38h1.23v1.38c0,.85-.18,1.73-.54,2.65ZM438.91,21.83c.39.74.94,1.41,1.64,2.01s1.52,1.06,2.43,1.38l-.81,1.21c-1.04-.39-1.95-.94-2.73-1.64-.78-.7-1.38-1.51-1.79-2.41-.42-.91-.62-1.84-.62-2.81v-1.38h1.29v1.38c0,.76.2,1.51.58,2.25ZM440.93,17.19h-1.6V4.35h1.6v12.83Z"/>
      <path class="cls-1" d="M453.7,12.82c-.61,1.78-1.55,3.43-2.83,4.97-1.27,1.54-2.88,2.88-4.82,4.04l-.96-1.19c1.76-1.05,3.23-2.26,4.42-3.63s2.08-2.86,2.66-4.47.88-3.28.88-5.03v-.25h1.56c0,1.93-.3,3.78-.91,5.56ZM453.74,8.61h-7.77v-1.35h7.77v1.35ZM458.41,15.03h-6.03v-1.33h6.03v1.33ZM459.39,25.54h-1.55V4.95h1.55v20.59ZM464.07,26.74h-1.54V4.33h1.54v22.41Z"/>
      <path class="cls-1" d="M480.31,15.31c-.6,1.51-1.4,2.85-2.39,4.02-.99,1.16-2.07,2.05-3.22,2.65l-1.03-1.33c1.06-.52,2.06-1.29,3.02-2.34.95-1.04,1.72-2.24,2.31-3.59s.88-2.7.88-4.05v-4.33h1.33v4.33c0,1.58-.3,3.13-.9,4.65ZM482.32,14.57c.59,1.3,1.36,2.46,2.32,3.47.96,1.02,1.96,1.77,3.01,2.27l-.99,1.26c-1.14-.58-2.22-1.42-3.22-2.55-1.01-1.12-1.82-2.41-2.43-3.88s-.91-2.96-.91-4.48v-4.33h1.35v4.33c0,1.3.29,2.6.88,3.9ZM492.12,26.77h-1.61V4.33h1.61v22.45Z"/>
      <path class="cls-1" d="M506.3,11.22c-.87,1.57-2.1,2.94-3.69,4.1-1.59,1.16-3.46,2.1-5.61,2.8l-.7-1.31c1.94-.63,3.63-1.45,5.07-2.45,1.44-1,2.55-2.15,3.35-3.44.79-1.29,1.19-2.69,1.19-4.18v-.66h1.7c0,1.85-.42,3.57-1.29,5.14ZM506.69,7.45h-9.5v-1.37h9.5v1.37ZM501.35,25.34h-1.59v-6.18h1.59v6.18ZM514.74,26.2h-14.98v-1.36h14.98v1.36ZM513.64,20.83h-1.61V4.33h1.61v16.5ZM517.12,12.71h-4.01v-1.38h4.01v1.38Z"/>
      <path class="cls-1" d="M528.16,7.08c.86.64,1.52,1.54,2,2.71s.72,2.53.72,4.09-.24,2.89-.72,4.06-1.14,2.07-2,2.7c-.85.63-1.83.95-2.93.95s-2.08-.32-2.93-.95c-.85-.63-1.52-1.54-2.01-2.7s-.72-2.52-.72-4.06.24-2.92.72-4.09,1.15-2.07,2.01-2.71c.86-.64,1.83-.96,2.93-.96s2.08.32,2.93.96ZM523.1,8.33c-.63.54-1.11,1.29-1.46,2.24-.35.96-.52,2.06-.52,3.3s.17,2.31.52,3.27c.35.96.83,1.71,1.46,2.24.62.53,1.34.8,2.13.8s1.5-.27,2.13-.8c.62-.53,1.11-1.28,1.45-2.24.35-.96.52-2.05.52-3.27s-.17-2.34-.52-3.3c-.35-.96-.83-1.7-1.45-2.24-.62-.54-1.33-.81-2.15-.81s-1.49.27-2.12.81ZM537.06,26.77h-1.61V4.33h1.61v22.45Z"/>
      <path class="cls-1" d="M567.95,23.87h-20.52v-1.35h20.52v1.35ZM566.73,9.32h-18.26v-1.36h18.26v1.36ZM561.5,11.47c1.1.35,1.94.85,2.53,1.51.59.66.88,1.44.88,2.36s-.29,1.67-.88,2.33c-.59.66-1.43,1.16-2.53,1.51-1.1.35-2.38.53-3.87.53s-2.78-.18-3.88-.53c-1.1-.35-1.94-.85-2.52-1.51-.58-.66-.88-1.43-.88-2.33s.29-1.7.88-2.36c.58-.66,1.42-1.16,2.51-1.51,1.09-.35,2.39-.52,3.88-.51,1.48,0,2.77.16,3.87.51ZM554.64,12.64c-.86.25-1.52.61-1.99,1.07-.47.46-.7,1-.7,1.62s.23,1.14.7,1.6c.46.46,1.13.81,1.99,1.06.86.25,1.86.37,3,.37s2.14-.12,3-.37c.86-.25,1.51-.6,1.97-1.06s.69-.99.69-1.6-.23-1.16-.69-1.62c-.46-.46-1.12-.82-1.97-1.07-.85-.25-1.85-.38-3-.37-1.14,0-2.14.11-3,.37ZM558.41,8.7h-1.57v-3.92h1.57v3.92Z"/>
      <path class="cls-1" d="M590.38,18.21h-20.5v-1.36h20.5v1.36ZM587.69,10.49h-13.53v3.28h-1.57v-4.52h13.51v-2.74h-13.6v-1.32h15.2v5.31ZM588.2,14.57h-15.62v-1.29h15.62v1.29ZM574.24,25.29h-1.61v-5.17h1.61v5.17ZM588.17,26.2h-15.54v-1.36h15.54v1.36Z"/>
      <path class="cls-1" d="M619.17,20.2h-20.52v-1.35h20.52v1.35ZM617.84,8.33h-18.09v-1.36h18.09v1.36ZM612.71,10.17c1.08.29,1.9.71,2.47,1.26.57.55.86,1.23.86,2.03s-.29,1.43-.86,1.98c-.57.55-1.39.97-2.47,1.26-1.07.29-2.36.44-3.86.45-1.5,0-2.78-.16-3.86-.45-1.07-.29-1.89-.71-2.46-1.26-.57-.55-.85-1.21-.85-1.98s.28-1.47.85-2.03c.57-.55,1.39-.97,2.46-1.26,1.08-.29,2.36-.43,3.86-.43s2.79.14,3.86.43ZM605.89,11.29c-.83.2-1.46.48-1.9.85-.44.37-.66.81-.66,1.31s.22.92.66,1.29c.44.37,1.07.65,1.9.84.83.19,1.81.3,2.96.3,1.13,0,2.12-.11,2.95-.3.83-.19,1.47-.48,1.91-.84.44-.37.67-.8.67-1.29s-.22-.95-.67-1.31c-.45-.37-1.08-.65-1.92-.85-.83-.2-1.81-.3-2.94-.3s-2.13.1-2.96.3ZM609.63,7.86h-1.56v-3.68h1.56v3.68ZM609.63,26.77h-1.56v-6.91h1.56v6.91Z"/>
      <path class="cls-1" d="M628.75,7.26c.72.62,1.28,1.51,1.68,2.67.4,1.16.6,2.51.6,4.06s-.2,2.88-.6,4.04c-.4,1.16-.96,2.05-1.68,2.69-.72.63-1.56.95-2.53.95s-1.79-.32-2.51-.95c-.73-.63-1.29-1.53-1.68-2.69-.39-1.16-.59-2.5-.59-4.04s.2-2.9.59-4.06c.39-1.16.96-2.05,1.68-2.67.73-.62,1.57-.93,2.51-.93s1.81.31,2.53.93ZM624.49,8.58c-.49.51-.87,1.23-1.14,2.16-.26.93-.39,2.01-.39,3.25s.13,2.29.39,3.22c.26.93.65,1.65,1.15,2.16.5.51,1.08.77,1.72.77s1.24-.26,1.73-.77c.49-.51.88-1.23,1.14-2.16.27-.93.4-2.01.4-3.22s-.13-2.32-.4-3.25c-.27-.93-.65-1.65-1.14-2.16-.5-.51-1.07-.77-1.73-.77s-1.24.26-1.73.77ZM634.83,14.57h-4.48v-1.36h4.48v1.36ZM635.79,25.57h-1.54V4.85h1.54v20.72ZM640.26,26.74h-1.56V4.33h1.56v22.41Z"/>
      <path class="cls-1" d="M650.33,14.17l-.29-1.45,7.82-.53v1.21l-7.53.77ZM659.01,12.8c-.53,1.79-1.43,3.47-2.72,5.05-1.29,1.58-3.03,2.97-5.22,4.15l-.98-1.18c2.01-1.08,3.61-2.32,4.8-3.74,1.2-1.42,2.05-2.94,2.54-4.57.5-1.63.75-3.36.75-5.2v-.24h1.6c0,2.03-.26,3.94-.79,5.73ZM658.91,8.42h-7.77v-1.35h7.77v1.35ZM663.95,25.58h-1.52V4.9h1.52v20.68ZM668.01,14.93h-4.58v-1.33h4.58v1.33ZM668.98,26.74h-1.56V4.33h1.56v22.41Z"/>
      <path class="cls-1" d="M692.76,18.57h-20.4v-1.35h20.4v1.35ZM681.77,11c-.87,1.06-1.98,1.95-3.32,2.65-1.34.7-2.73,1.19-4.17,1.47l-.65-1.28c1.23-.2,2.48-.61,3.72-1.22,1.25-.61,2.28-1.36,3.09-2.25.81-.89,1.22-1.85,1.22-2.86v-1.05h1.41v1.05c0,1.27-.44,2.44-1.31,3.5ZM690.78,7.15h-16.48v-1.33h16.48v1.33ZM683.31,26.72h-1.56v-8.68h1.56v8.68ZM684.65,10.37c.82.89,1.85,1.64,3.1,2.25,1.25.61,2.49,1.02,3.73,1.22l-.62,1.28c-1.45-.28-2.84-.77-4.19-1.46s-2.45-1.58-3.32-2.65c-.87-1.07-1.3-2.24-1.3-3.51v-1.05h1.38v1.05c0,1.02.41,1.97,1.22,2.86Z"/>
      <path class="cls-1" d="M700.37,15.33c-.45,1.42-1.08,2.69-1.9,3.81-.81,1.12-1.74,2-2.79,2.63l-1.05-1.21c.99-.58,1.88-1.37,2.66-2.39s1.39-2.15,1.83-3.41c.44-1.26.65-2.52.65-3.78v-4.49h1.28v4.49c0,1.47-.23,2.92-.68,4.34ZM701.92,14.49c.41,1.19,1,2.28,1.74,3.26.75.98,1.6,1.75,2.56,2.31l-.95,1.23c-1.03-.62-1.94-1.48-2.73-2.58s-1.4-2.33-1.83-3.68-.65-2.72-.65-4.1v-4.43h1.24v4.43c0,1.18.21,2.36.62,3.55ZM708.31,13.91h-4.58v-1.4h4.58v1.4ZM709.32,25.57h-1.51V4.85h1.51v20.72ZM713.96,26.74h-1.56V4.33h1.56v22.41Z"/>
      <path class="cls-1" d="M737.81,23.77h-20.52v-1.37h20.52v1.37ZM731.71,6.56c1.23.47,2.18,1.13,2.87,1.99.69.86,1.03,1.86,1.03,2.99s-.34,2.1-1.03,2.96-1.64,1.52-2.87,1.99c-1.23.47-2.63.71-4.21.71s-2.96-.23-4.2-.71c-1.23-.47-2.19-1.13-2.88-1.99s-1.04-1.84-1.04-2.96.35-2.13,1.04-2.99c.69-.86,1.65-1.52,2.88-1.99,1.23-.47,2.63-.7,4.2-.7s2.99.24,4.21.7ZM724.1,7.72c-1,.36-1.78.88-2.35,1.54-.57.66-.85,1.42-.85,2.28s.29,1.6.86,2.26c.57.66,1.35,1.18,2.35,1.55,1,.37,2.12.56,3.38.56s2.39-.19,3.39-.56c1-.37,1.78-.89,2.35-1.55.57-.66.85-1.41.85-2.26s-.28-1.61-.85-2.28c-.57-.67-1.35-1.18-2.35-1.54-1-.36-2.13-.54-3.39-.53-1.26,0-2.39.17-3.39.53ZM724.1,22.79h-1.56v-6.86h1.56v6.86ZM732.54,22.79h-1.61v-6.86h1.61v6.86Z"/>
      <path class="cls-1" d="M741.34,24.71c-.21-.13-.38-.29-.49-.5-.12-.21-.18-.43-.18-.67s.06-.47.18-.69c.12-.21.28-.38.49-.5.21-.12.44-.18.69-.18s.46.06.67.18c.21.12.37.28.49.5.12.21.18.44.18.69s-.06.46-.18.67c-.12.21-.28.38-.5.5-.21.13-.44.19-.67.19s-.46-.06-.67-.19ZM742.86,19.5h-1.7l-.13-13.13h1.96l-.13,13.13Z"/>
      <path class="cls-1" d="M5.13,60.44c-.35-.21-.63-.5-.84-.85-.21-.36-.32-.75-.32-1.17s.11-.81.32-1.17c.21-.36.49-.63.84-.84s.73-.3,1.14-.3c.43,0,.83.1,1.19.3.36.2.65.48.85.84s.3.75.3,1.17-.1.81-.3,1.17-.49.64-.85.85c-.37.21-.76.32-1.19.32-.41,0-.79-.11-1.14-.32Z"/>
      <path class="cls-1" d="M39.39,57.71h-20.4v-1.33h20.4v1.33ZM33.37,46.43c1.18.33,2.09.82,2.72,1.46.63.64.95,1.39.95,2.27s-.31,1.61-.95,2.24c-.63.63-1.54,1.11-2.72,1.45-1.18.33-2.57.5-4.18.5s-2.99-.17-4.18-.5c-1.19-.33-2.1-.82-2.73-1.45-.63-.63-.95-1.38-.95-2.24s.32-1.63.95-2.27c.63-.64,1.54-1.12,2.73-1.46,1.18-.33,2.58-.5,4.18-.5s3,.17,4.18.5ZM33.33,60.25c1.15.3,2.02.75,2.63,1.33.61.59.91,1.31.91,2.16s-.3,1.55-.91,2.15c-.61.6-1.49,1.05-2.63,1.36-1.15.31-2.53.46-4.13.46s-2.99-.15-4.14-.46c-1.16-.31-2.04-.76-2.65-1.36-.61-.6-.91-1.31-.91-2.15s.3-1.58.91-2.16c.61-.59,1.49-1.03,2.65-1.33,1.15-.3,2.54-.45,4.14-.44,1.61,0,2.98.14,4.13.44ZM25.91,47.6c-.94.23-1.66.57-2.18,1.01-.51.44-.77.96-.77,1.55s.26,1.11.77,1.54c.51.44,1.23.77,2.16,1,.93.23,2.03.35,3.29.36,1.25,0,2.35-.13,3.29-.36.94-.23,1.66-.57,2.17-1,.51-.44.76-.95.76-1.54s-.26-1.11-.77-1.55-1.24-.78-2.18-1.01c-.94-.23-2.03-.35-3.28-.34-1.24,0-2.34.1-3.28.34ZM25.96,61.38c-.91.21-1.62.51-2.11.92-.49.41-.74.89-.74,1.45s.25,1.04.74,1.43c.49.4,1.19.7,2.11.91.91.21,1.99.31,3.24.31s2.32-.1,3.23-.31c.91-.21,1.61-.51,2.1-.92.49-.41.74-.88.74-1.42s-.25-1.04-.74-1.45c-.49-.41-1.19-.71-2.1-.92-.91-.21-1.99-.31-3.23-.31s-2.32.1-3.24.31Z"/>
      <path class="cls-1" d="M51.86,53.85c-.73,1.92-1.86,3.69-3.4,5.31-1.54,1.62-3.49,3.02-5.84,4.18l-.89-1.27c2.11-1.05,3.88-2.29,5.31-3.73s2.52-3.02,3.24-4.76c.73-1.74,1.09-3.6,1.09-5.57v-.24h1.57c0,2.13-.36,4.16-1.09,6.07ZM52.2,49.15h-9.5v-1.37h9.5v1.37ZM58.7,67.74h-1.61v-22.41h1.61v22.41ZM62.47,55.98h-4.2v-1.36h4.2v1.36Z"/>
      <path class="cls-1" d="M74.33,53.85c-.73,1.92-1.86,3.69-3.4,5.31-1.54,1.62-3.49,3.02-5.84,4.18l-.89-1.27c2.11-1.05,3.88-2.29,5.31-3.73s2.52-3.02,3.24-4.76c.73-1.74,1.09-3.6,1.09-5.57v-.24h1.57c0,2.13-.36,4.16-1.09,6.07ZM74.67,49.15h-9.5v-1.37h9.5v1.37ZM81.17,67.74h-1.61v-22.41h1.61v22.41ZM84.94,55.98h-4.2v-1.36h4.2v1.36Z"/>
      <path class="cls-1" d="M113.09,56.32h-20.4v-1.35h20.4v1.35ZM110.42,63.56h-13.58v3.02h-1.59v-4.27h13.61v-2.26h-13.66v-1.28h15.22v4.79ZM111.13,67.44h-15.88v-1.31h15.88v1.31ZM110.42,52.86h-15.04v-6.75h15.04v6.75ZM96.96,51.55h11.87v-4.14h-11.87v4.14ZM103.65,59.41h-1.57v-3.59h1.57v3.59Z"/>
      <path class="cls-1" d="M126.01,52.67h-8.29v4.51h-1.57v-5.81h8.3v-3.35h-8.37v-1.36h9.93v6.02ZM123.21,56.24c1.51-.09,3.09-.27,4.74-.54l.15,1.36c-1.71.26-3.34.44-4.89.55-1.55.1-3.36.15-5.43.14h-1.64v-1.37h1.64c2.11,0,3.92-.04,5.43-.13ZM130.25,59.97c1.12.32,1.97.79,2.56,1.4.59.61.88,1.36.88,2.23s-.29,1.59-.88,2.2c-.59.61-1.44,1.08-2.54,1.4-1.11.32-2.44.49-3.99.51-1.55-.02-2.88-.19-3.99-.51s-1.96-.79-2.56-1.4c-.59-.61-.89-1.35-.89-2.2s.3-1.61.89-2.23c.6-.61,1.46-1.08,2.57-1.4s2.44-.48,3.97-.48,2.86.16,3.97.48ZM123.17,61.11c-.88.23-1.56.55-2.03.98-.47.42-.71.93-.71,1.51s.23,1.07.71,1.49c.47.42,1.15.74,2.03.96.88.22,1.92.34,3.1.34s2.23-.11,3.11-.34c.88-.22,1.56-.55,2.03-.96.47-.42.71-.92.71-1.49s-.24-1.09-.71-1.51c-.47-.42-1.15-.75-2.03-.98-.88-.23-1.92-.34-3.11-.34s-2.22.11-3.1.34ZM132.66,52.03h-5.13v-1.36h5.13v1.36ZM133.62,59.28h-1.61v-13.93h1.61v13.93Z"/>
      <path class="cls-1" d="M150.88,50.37h-13.38v-1.36h13.38v1.36ZM147.12,53.07c.82.43,1.46,1.03,1.92,1.8.46.77.69,1.65.69,2.64s-.23,1.86-.69,2.63c-.46.77-1.1,1.37-1.92,1.8-.82.43-1.75.64-2.8.64s-1.97-.21-2.79-.64c-.82-.43-1.46-1.03-1.93-1.8-.47-.77-.7-1.65-.7-2.63s.23-1.87.7-2.64c.46-.77,1.11-1.37,1.93-1.8.82-.43,1.75-.64,2.79-.64s1.98.21,2.8.64ZM142.32,54.27c-.59.32-1.05.76-1.39,1.33-.34.56-.51,1.2-.51,1.91s.17,1.33.51,1.89c.34.56.8,1,1.39,1.31.59.32,1.25.48,2,.48s1.41-.16,2-.48c.59-.32,1.05-.75,1.38-1.31s.5-1.19.5-1.89-.17-1.35-.5-1.91c-.33-.56-.79-1.01-1.38-1.33-.59-.32-1.25-.48-2-.48s-1.41.16-2,.48ZM145.08,49.71h-1.59v-4.14h1.59v4.14ZM154.87,67.74h-1.61v-22.41h1.61v22.41ZM158.74,56.06h-4.27v-1.35h4.27v1.35Z"/>
      <path class="cls-1" d="M171.55,48.9h-8.86v12.42h-1.59v-13.76h10.45v1.35ZM168.55,60.55c1.6-.12,3.21-.33,4.86-.65l.22,1.41c-1.68.3-3.31.51-4.91.62s-3.56.16-5.88.15h-1.73v-1.37h1.73c2.22,0,4.12-.05,5.72-.17ZM177.34,67.77h-1.61v-22.45h1.61v22.45ZM181.21,55.75h-4.27v-1.38h4.27v1.38Z"/>
      <path class="cls-1" d="M193.82,57.64h-10.16v-10.31h10.16v10.31ZM185.25,56.34h7.01v-7.66h-7.01v7.66ZM188.29,66.39h-1.61v-6.12h1.61v6.12ZM201.56,67.2h-14.88v-1.36h14.88v1.36ZM199.94,50.8h-6.55v-1.37h6.55v1.37ZM199.96,55.59h-6.58v-1.37h6.58v1.37ZM201.03,61.72h-1.61v-16.36h1.61v16.36Z"/>
      <path class="cls-1" d="M222.95,48.13h-8.77v8.14h-1.57v-9.5h10.35v1.36ZM219.86,55.52c1.48-.12,2.96-.32,4.43-.62l.19,1.37c-1.54.3-3.06.5-4.56.6-1.5.11-3.4.16-5.68.16h-1.62v-1.33h1.62c2.27,0,4.14-.07,5.62-.18ZM230.25,67.41h-15.51v-1.33h15.51v1.33ZM229.97,60.54h-15.02v-1.36h15.02v1.36ZM219.91,66.76h-1.57v-7.01h1.57v7.01ZM228.65,52.17h-7.17v-1.36h7.17v1.36ZM226.62,66.76h-1.61v-7.01h1.61v7.01ZM229.78,57.91h-1.61v-12.58h1.61v12.58Z"/>
      <path class="cls-1" d="M242.63,48.08c.83.64,1.48,1.54,1.95,2.71.47,1.17.7,2.53.7,4.09s-.23,2.89-.7,4.06c-.47,1.17-1.12,2.07-1.95,2.7-.83.63-1.79.95-2.87.95s-2.03-.32-2.88-.95c-.84-.63-1.5-1.54-1.97-2.7-.47-1.17-.71-2.52-.71-4.06s.24-2.92.71-4.09c.47-1.17,1.12-2.07,1.97-2.71.84-.64,1.8-.96,2.88-.96s2.04.32,2.87.96ZM237.67,49.33c-.62.54-1.09,1.29-1.43,2.24-.34.96-.51,2.06-.51,3.3s.17,2.31.51,3.27c.34.96.81,1.71,1.43,2.24.61.53,1.31.8,2.09.8s1.48-.27,2.09-.8c.62-.53,1.09-1.28,1.43-2.24.33-.96.5-2.05.5-3.27s-.17-2.34-.5-3.3c-.34-.96-.81-1.7-1.42-2.24-.62-.54-1.31-.81-2.1-.81s-1.47.27-2.09.81ZM251.4,55.38h-6.68v-1.33h6.68v1.33ZM252.24,67.77h-1.57v-22.45h1.57v22.45Z"/>
      <path class="cls-1" d="M264.03,54.34c2.34-.08,4.56-.27,6.66-.56l.11,1.14c-2.18.36-4.47.6-6.87.72-2.4.11-4.93.16-7.59.15l-.2-1.33c2.92,0,5.55-.03,7.89-.11ZM262.79,63.55c-.42.88-1.01,1.66-1.78,2.34-.77.68-1.68,1.21-2.73,1.58l-.79-1.24c.92-.3,1.74-.73,2.45-1.3.71-.57,1.26-1.22,1.66-1.94.39-.72.59-1.45.59-2.19v-.47h1.22v.47c0,.96-.21,1.88-.62,2.75ZM268.52,47.3h-8.46v4.63h-1.61v-5.94h10.07v1.31ZM268.62,52.51h-10.17v-1.32h10.17v1.32ZM264.05,59.42h-1.59v-4.66h1.59v4.66ZM264.17,62.94c.32.74.79,1.41,1.42,2.03.62.62,1.36,1.1,2.21,1.43l-.69,1.23c-1-.4-1.84-.96-2.54-1.7-.69-.73-1.22-1.55-1.57-2.44s-.53-1.8-.53-2.7v-.47h1.22v.47c0,.69.16,1.41.48,2.15ZM271.23,63.48c-.35.9-.88,1.72-1.57,2.46-.7.74-1.54,1.3-2.53,1.7l-.69-1.23c.86-.34,1.6-.81,2.22-1.43.61-.61,1.08-1.29,1.4-2.02.32-.74.47-1.46.47-2.16v-.47h1.23v.47c0,.89-.18,1.78-.53,2.68ZM273.43,58.01h-5.28v-1.18h5.28v1.18ZM272.68,62.99c.39.72.94,1.37,1.64,1.94.71.57,1.52,1.01,2.44,1.3l-.81,1.24c-1.03-.37-1.94-.9-2.72-1.58-.78-.68-1.38-1.46-1.79-2.34-.42-.88-.62-1.8-.62-2.75v-.47h1.27v.47c0,.75.2,1.48.58,2.2ZM274.56,59.59h-1.59v-14.26h1.59v14.26Z"/>
      <path class="cls-1" d="M290.19,48.9h-8.86v12.42h-1.59v-13.76h10.45v1.35ZM287.19,60.55c1.59-.12,3.21-.33,4.86-.65l.21,1.41c-1.68.3-3.31.51-4.91.62s-3.56.16-5.88.15h-1.73v-1.37h1.73c2.22,0,4.12-.05,5.72-.17ZM295.98,67.77h-1.61v-22.45h1.61v22.45ZM299.85,55.75h-4.27v-1.38h4.27v1.38Z"/>
      <path class="cls-1" d="M311.6,53.85c-.73,1.92-1.86,3.69-3.4,5.31-1.54,1.62-3.49,3.02-5.84,4.18l-.89-1.27c2.11-1.05,3.88-2.29,5.31-3.73s2.52-3.02,3.24-4.76c.73-1.74,1.09-3.6,1.09-5.57v-.24h1.57c0,2.13-.36,4.16-1.09,6.07ZM311.95,49.15h-9.5v-1.37h9.5v1.37ZM318.45,67.74h-1.61v-22.41h1.61v22.41ZM322.22,55.98h-4.2v-1.36h4.2v1.36Z"/>
      <path class="cls-1" d="M336.45,48.45h-4v7.76h-1.54v-9.09h5.54v1.33ZM334.23,55.39c.86-.08,1.75-.23,2.66-.44l.2,1.38c-.98.22-1.89.36-2.73.43-.84.06-1.68.09-2.53.08h-.93v-1.35h.93c.74,0,1.54-.03,2.39-.11ZM347.76,67.77h-1.61v-6.6h-13.08v-1.31h14.69v7.91ZM343.81,48.45h-4.41v7.68h-1.54v-9.01h5.94v1.33ZM341.92,55.39c.88-.08,1.8-.23,2.77-.44l.2,1.37c-1,.21-1.94.35-2.83.42-.89.07-1.93.1-3.11.1h-1.08v-1.35h1.08c1.1,0,2.09-.03,2.97-.11ZM347.76,58.77h-1.61v-13.44h1.61v13.44ZM350.87,52.86h-3.92v-1.38h3.92v1.38Z"/>
      <path class="cls-1" d="M358.92,48.45h-4v7.76h-1.54v-9.09h5.54v1.33ZM356.7,55.39c.86-.08,1.75-.23,2.66-.44l.2,1.38c-.98.22-1.89.36-2.73.43-.84.06-1.68.09-2.53.08h-.93v-1.35h.93c.74,0,1.54-.03,2.39-.11ZM370.23,67.77h-1.61v-6.6h-13.08v-1.31h14.69v7.91ZM366.28,48.45h-4.41v7.68h-1.54v-9.01h5.94v1.33ZM364.39,55.39c.88-.08,1.8-.23,2.77-.44l.2,1.37c-1,.21-1.94.35-2.83.42-.89.07-1.93.1-3.11.1h-1.08v-1.35h1.08c1.1,0,2.09-.03,2.97-.11ZM370.23,58.77h-1.61v-13.44h1.61v13.44ZM373.34,52.86h-3.92v-1.38h3.92v1.38Z"/>
      <path class="cls-1" d="M386.21,50.69h-11.36v-1.33h11.36v1.33ZM383.02,52.98c.73.42,1.3,1.02,1.71,1.78.42.77.62,1.64.62,2.61s-.21,1.84-.62,2.61c-.41.77-.99,1.36-1.71,1.8-.73.43-1.56.65-2.49.65s-1.75-.22-2.48-.65c-.73-.43-1.29-1.03-1.7-1.8s-.61-1.64-.61-2.6.2-1.83.61-2.6.97-1.37,1.7-1.79c.73-.42,1.55-.63,2.48-.63s1.76.21,2.49.63ZM378.81,54.21c-.52.33-.92.76-1.21,1.31-.29.55-.43,1.17-.43,1.85s.14,1.31.44,1.87c.29.56.69.99,1.21,1.3.51.31,1.08.46,1.71.46s1.21-.15,1.73-.46c.52-.31.92-.74,1.22-1.3.29-.56.44-1.18.44-1.87s-.15-1.3-.44-1.85c-.3-.55-.7-.99-1.22-1.31-.52-.33-1.09-.49-1.73-.49s-1.2.16-1.71.49ZM381.34,50.15h-1.6v-4.14h1.6v4.14ZM388.99,66.58h-1.51v-20.68h1.51v20.68ZM392.87,56.23h-4.47v-1.36h4.47v1.36ZM393.89,67.74h-1.55v-22.41h1.55v22.41Z"/>
      <path class="cls-1" d="M403.99,56.87c-.62,1.46-1.42,2.77-2.42,3.92-.99,1.15-2.05,2.01-3.17,2.6l-.98-1.27c1.03-.51,2.01-1.28,2.95-2.32.95-1.04,1.71-2.2,2.3-3.5.59-1.3.89-2.57.89-3.83v-4.06h1.35v4.06c0,1.47-.31,2.94-.93,4.41ZM410.72,49.04h-12.61v-1.36h12.61v1.36ZM406.04,56.16c.58,1.23,1.36,2.32,2.32,3.27.96.95,1.97,1.67,3.03,2.14l-.93,1.27c-1.16-.55-2.24-1.36-3.25-2.42-1.01-1.06-1.82-2.29-2.43-3.68s-.92-2.81-.92-4.28v-4.06h1.31v4.06c0,1.24.29,2.47.88,3.69ZM415.76,67.74h-1.61v-22.41h1.61v22.41Z"/>
      <path class="cls-1" d="M431.09,57.64h-10.16v-10.31h10.16v10.31ZM422.52,56.34h7.01v-7.66h-7.01v7.66ZM425.57,66.39h-1.61v-6.12h1.61v6.12ZM438.84,67.2h-14.88v-1.36h14.88v1.36ZM437.21,50.8h-6.55v-1.37h6.55v1.37ZM437.24,55.59h-6.58v-1.37h6.58v1.37ZM438.3,61.72h-1.61v-16.36h1.61v16.36Z"/>
      <path class="cls-1" d="M455.61,57.14c-.58,1.41-1.35,2.66-2.33,3.73-.98,1.07-2.05,1.89-3.21,2.47l-.91-1.24c1.08-.5,2.08-1.23,3-2.2s1.64-2.07,2.18-3.33c.54-1.25.81-2.54.81-3.86v-2.25h1.32v2.25c0,1.54-.29,3.02-.86,4.43ZM462.09,50.64h-12.38v-1.32h12.38v1.32ZM456.71,50.09h-1.59v-4.38h1.59v4.38ZM457.55,56.41c.56,1.2,1.31,2.26,2.25,3.17.94.91,1.95,1.61,3.03,2.09l-.93,1.26c-1.17-.54-2.25-1.33-3.24-2.35-.99-1.03-1.78-2.22-2.37-3.59-.59-1.36-.89-2.79-.89-4.28v-2.25h1.31v2.25c0,1.27.28,2.5.84,3.71ZM466.98,67.74h-1.61v-22.41h1.61v22.41Z"/>
      <path class="cls-1" d="M479.03,57.15c2.42-.09,4.73-.3,6.93-.61l.1,1.22c-2.28.37-4.63.62-7.08.74-2.44.12-5.04.18-7.79.17l-.23-1.4c2.95,0,5.64-.03,8.06-.13ZM481.29,47.06c.85.36,1.51.87,1.98,1.52.47.66.71,1.42.71,2.28s-.23,1.63-.7,2.29c-.47.65-1.13,1.16-1.98,1.51-.85.36-1.83.53-2.94.53s-2.09-.18-2.94-.53c-.85-.36-1.51-.86-1.99-1.51-.47-.65-.71-1.41-.71-2.29s.24-1.62.71-2.28c.47-.66,1.14-1.16,1.99-1.52.85-.36,1.83-.54,2.94-.54s2.09.18,2.93.54ZM476.22,48.19c-.63.26-1.12.63-1.47,1.1-.35.47-.52,1-.52,1.58s.17,1.12.52,1.59c.35.47.84.83,1.47,1.09.63.26,1.34.39,2.14.39s1.49-.13,2.12-.39c.63-.26,1.12-.62,1.47-1.09.35-.47.53-1,.53-1.59s-.18-1.11-.53-1.58c-.35-.47-.84-.83-1.47-1.1-.62-.26-1.33-.39-2.12-.39s-1.51.13-2.14.39ZM479.07,67.04h-1.61v-9.28h1.61v9.28ZM488.27,61.99h-5.84v-1.26h5.84v1.26ZM489.41,67.76h-1.62v-22.41h1.62v22.41Z"/>
      <path class="cls-1" d="M513.94,59.57h-20.4v-1.35h20.4v1.35ZM502.96,52c-.87,1.06-1.98,1.95-3.32,2.65s-2.73,1.19-4.17,1.47l-.65-1.28c1.24-.2,2.48-.61,3.73-1.22s2.28-1.36,3.09-2.25c.81-.89,1.22-1.85,1.22-2.86v-1.05h1.41v1.05c0,1.27-.44,2.44-1.31,3.5ZM511.96,48.15h-16.48v-1.33h16.48v1.33ZM504.5,67.72h-1.56v-8.68h1.56v8.68ZM505.84,51.37c.82.89,1.85,1.64,3.1,2.25s2.49,1.02,3.73,1.22l-.62,1.28c-1.45-.28-2.84-.77-4.19-1.46s-2.45-1.58-3.32-2.65c-.87-1.07-1.3-2.24-1.3-3.51v-1.05h1.38v1.05c0,1.02.41,1.97,1.22,2.86Z"/>
      <path class="cls-1" d="M521.55,56.33c-.45,1.42-1.09,2.69-1.9,3.81-.81,1.12-1.74,2-2.79,2.63l-1.05-1.21c.99-.58,1.88-1.37,2.66-2.39.78-1.02,1.39-2.15,1.83-3.41.44-1.26.65-2.52.65-3.78v-4.49h1.28v4.49c0,1.47-.23,2.92-.68,4.34ZM523.11,55.49c.42,1.19,1,2.28,1.75,3.26.75.98,1.6,1.75,2.56,2.31l-.95,1.23c-1.03-.62-1.94-1.48-2.73-2.58s-1.4-2.33-1.83-3.68c-.44-1.35-.65-2.72-.65-4.1v-4.43h1.24v4.43c0,1.18.21,2.36.62,3.55ZM529.49,54.91h-4.58v-1.4h4.58v1.4ZM530.51,66.57h-1.51v-20.72h1.51v20.72ZM535.14,67.74h-1.56v-22.41h1.56v22.41Z"/>
      <path class="cls-1" d="M559,64.77h-20.52v-1.37h20.52v1.37ZM552.89,47.56c1.23.47,2.18,1.13,2.87,1.99.69.86,1.03,1.86,1.03,2.99s-.34,2.1-1.03,2.96-1.64,1.52-2.87,1.99c-1.23.47-2.63.71-4.21.71s-2.96-.23-4.2-.71c-1.23-.47-2.19-1.13-2.88-1.99-.69-.85-1.04-1.84-1.04-2.96s.34-2.13,1.04-2.99c.69-.86,1.65-1.52,2.88-1.99,1.23-.47,2.63-.7,4.2-.7s2.99.24,4.21.7ZM545.29,48.72c-1,.36-1.78.88-2.35,1.54-.57.66-.85,1.42-.85,2.28s.29,1.6.86,2.26c.57.66,1.35,1.18,2.35,1.55s2.12.56,3.38.56,2.39-.19,3.39-.56c1-.37,1.78-.89,2.35-1.55.57-.66.85-1.41.85-2.26s-.28-1.61-.85-2.28c-.57-.67-1.35-1.18-2.35-1.54-1-.36-2.13-.54-3.39-.53-1.26,0-2.39.17-3.39.53ZM545.29,63.79h-1.56v-6.86h1.56v6.86ZM553.73,63.79h-1.61v-6.86h1.61v6.86Z"/>
      <path class="cls-1" d="M562.48,65.71c-.21-.13-.38-.29-.5-.5-.12-.21-.18-.43-.18-.67s.06-.47.18-.69c.12-.21.28-.38.5-.5.21-.12.44-.18.69-.18s.46.06.67.18c.21.12.38.28.5.5.12.21.18.44.18.69s-.06.46-.18.67c-.12.21-.28.38-.5.5-.21.13-.44.19-.69.19s-.46-.06-.67-.19Z"/>
      <path class="cls-1" d="M5.13,101.44c-.35-.21-.63-.5-.84-.85-.21-.36-.32-.75-.32-1.17s.11-.81.32-1.17c.21-.36.49-.63.84-.84s.73-.3,1.14-.3c.43,0,.83.1,1.19.3.36.2.65.48.85.84s.3.75.3,1.17-.1.81-.3,1.17-.49.64-.85.85c-.37.21-.76.32-1.19.32-.41,0-.79-.11-1.14-.32Z"/>
      <path class="cls-1" d="M25.47,94.75c-.54,1.17-1.29,2.19-2.25,3.05-.95.87-2.03,1.53-3.23,2l-.84-1.31c1.07-.39,2.04-.96,2.93-1.71.88-.75,1.58-1.63,2.1-2.62.52-1,.78-2.03.78-3.12v-1.97h1.33v1.97c0,1.3-.27,2.54-.82,3.71ZM31.75,89.62h-12.04v-1.35h12.04v1.35ZM24.83,107.43h-1.61v-6.13h1.61v6.13ZM38.12,108.2h-14.9v-1.36h14.9v1.36ZM27.3,93.88c.5.92,1.17,1.74,2.03,2.45.85.71,1.81,1.25,2.87,1.62l-.85,1.29c-1.17-.44-2.21-1.07-3.13-1.9-.92-.83-1.64-1.79-2.18-2.88-.53-1.1-.8-2.24-.8-3.43v-1.97h1.32v1.97c0,.97.25,1.92.74,2.84ZM36.8,94.02h-5.89v-1.36h5.89v1.36ZM37.45,102.79h-1.61v-16.44h1.61v16.44Z"/>
      <path class="cls-1" d="M46.96,97.55c-.44,1.41-1.05,2.67-1.85,3.8-.79,1.13-1.72,2.02-2.78,2.66l-.98-1.22c.98-.58,1.85-1.37,2.6-2.39.75-1.02,1.34-2.15,1.77-3.4.42-1.25.63-2.5.63-3.75v-1.38h1.26v1.38c0,1.46-.22,2.89-.66,4.29ZM52.3,91.95h-10.41v-1.35h10.41v1.35ZM47.9,91.58h-1.54v-4.42h1.54v4.42ZM48.51,96.85c.43,1.19,1.02,2.26,1.78,3.22.76.96,1.63,1.71,2.62,2.24l-.95,1.22c-1.04-.59-1.97-1.42-2.79-2.49-.82-1.07-1.45-2.28-1.89-3.64-.44-1.35-.66-2.73-.66-4.14v-1.38h1.24v1.38c0,1.2.21,2.4.64,3.59ZM55.21,96.68h-4.52v-1.38h4.52v1.38ZM56.02,107.52h-1.52v-20.59h1.52v20.59ZM60.54,108.74h-1.55v-22.41h1.55v22.41Z"/>
      <path class="cls-1" d="M70.4,94.32c-.55,1.16-1.31,2.18-2.25,3.04-.95.86-2.02,1.52-3.21,1.99l-.84-1.28c1.07-.4,2.04-.97,2.93-1.73.88-.75,1.58-1.63,2.1-2.63.52-1,.78-2.03.78-3.08v-1.99h1.33v1.99c0,1.3-.28,2.54-.83,3.7ZM76.69,89.31h-12.04v-1.33h12.04v1.33ZM82.39,108.74h-1.61v-6.36h-13.34v-1.35h14.96v7.71ZM72.23,93.44c.49.92,1.17,1.74,2.03,2.44.86.71,1.82,1.25,2.87,1.62l-.85,1.28c-1.17-.44-2.21-1.07-3.13-1.88-.92-.82-1.64-1.77-2.18-2.87-.53-1.1-.8-2.24-.8-3.43v-1.97h1.32v1.97c0,.97.24,1.92.74,2.84ZM81.25,93.72h-5.29v-1.36h5.29v1.36ZM82.39,99.79h-1.61v-13.46h1.61v13.46Z"/>
      <path class="cls-1" d="M106.92,105.66h-20.52v-1.37h20.52v1.37ZM100.78,88.65c1.23.5,2.19,1.21,2.89,2.13.69.92,1.04,1.97,1.04,3.17s-.35,2.24-1.04,3.17c-.7.93-1.66,1.64-2.89,2.14-1.23.5-2.62.75-4.18.75s-2.93-.25-4.16-.75c-1.23-.5-2.2-1.21-2.9-2.14-.7-.93-1.05-1.98-1.05-3.17s.35-2.25,1.05-3.17c.7-.92,1.67-1.63,2.9-2.13,1.23-.5,2.62-.76,4.16-.76s2.95.25,4.18.76ZM93.23,89.79c-1,.41-1.79.98-2.37,1.7-.57.72-.86,1.54-.86,2.46s.29,1.73.86,2.46c.58.72,1.37,1.29,2.37,1.68,1,.4,2.12.6,3.37.6s2.37-.2,3.37-.6c1-.4,1.79-.96,2.36-1.68.57-.72.86-1.54.86-2.46s-.29-1.73-.86-2.46c-.58-.72-1.36-1.29-2.36-1.7-1-.41-2.12-.61-3.37-.59-1.24-.02-2.37.18-3.37.59Z"/>
      <path class="cls-1" d="M129.39,105.85h-20.52v-1.36h20.52v1.36ZM126.72,94.62h-13.62v4.76h-1.59v-6.09h13.63v-3.87h-13.71v-1.36h15.29v6.56ZM127.26,99.99h-15.74v-1.35h15.74v1.35ZM119.84,105.11h-1.56v-5.61h1.56v5.61Z"/>
      <path class="cls-1" d="M148.95,89.12h-8.62v8.59h-1.59v-9.98h10.21v1.38ZM146.24,96.87c1.43-.08,2.85-.26,4.27-.53l.19,1.33c-1.48.26-2.95.44-4.39.52s-3.42.12-5.92.1h-1.65v-1.32h1.65c2.47.02,4.42-.02,5.85-.1ZM148.56,93.63h-8.76v-1.36h8.76v1.36ZM155.06,108.41h-13.98v-7.62h13.98v7.62ZM142.64,107.07h10.82v-4.98h-10.82v4.98ZM155.06,99.56h-1.59v-13.23h1.59v13.23ZM158.54,93.39h-3.92v-1.38h3.92v1.38Z"/>
      <path class="cls-1" d="M165.73,94.07c-.45,1.07-1.06,2.04-1.85,2.9s-1.71,1.53-2.75,1.99l-.9-1.24c.94-.42,1.78-1.01,2.53-1.76.74-.75,1.32-1.58,1.73-2.47.41-.89.62-1.77.62-2.62v-3.14h1.29v3.14c0,1.07-.22,2.13-.67,3.21ZM179.05,108.74h-1.56v-6.21h-13.42v-1.35h14.98v7.55ZM167.21,93.38c.39.83.94,1.58,1.66,2.24.72.66,1.54,1.17,2.47,1.54l-.85,1.26c-1.04-.43-1.95-1.03-2.72-1.81-.78-.77-1.37-1.66-1.79-2.65-.42-1-.63-2.03-.63-3.09v-3.14h1.28v3.14c0,.85.2,1.69.58,2.52ZM174.18,99.75h-1.52v-12.99h1.52v12.99ZM178.04,93.69h-4.53v-1.37h4.53v1.37ZM179.05,99.88h-1.54v-13.52h1.54v13.52Z"/>
      <path class="cls-1" d="M209.37,102.2h-20.52v-1.35h20.52v1.35ZM208.04,90.33h-18.09v-1.36h18.09v1.36ZM202.91,92.17c1.08.29,1.9.71,2.47,1.26.57.55.86,1.23.86,2.03s-.29,1.43-.86,1.98c-.57.55-1.39.97-2.47,1.26-1.07.29-2.36.44-3.86.45-1.5,0-2.78-.16-3.86-.45-1.07-.29-1.89-.71-2.46-1.26-.57-.55-.85-1.21-.85-1.98s.28-1.47.85-2.03c.57-.55,1.39-.97,2.46-1.26,1.08-.29,2.36-.43,3.86-.43s2.79.14,3.86.43ZM196.09,93.29c-.83.2-1.46.48-1.9.85-.44.37-.66.81-.66,1.31s.22.92.66,1.29c.44.37,1.07.65,1.9.84.83.19,1.81.3,2.96.3,1.13,0,2.12-.11,2.95-.3.83-.19,1.47-.48,1.91-.84.44-.37.67-.8.67-1.29s-.22-.95-.67-1.31c-.45-.37-1.08-.65-1.92-.85-.83-.2-1.81-.3-2.94-.3s-2.13.1-2.96.3ZM199.82,89.86h-1.56v-3.68h1.56v3.68ZM199.82,108.77h-1.56v-6.91h1.56v6.91Z"/>
      <path class="cls-1" d="M229.06,89.9h-8.86v12.42h-1.59v-13.76h10.45v1.35ZM226.06,101.55c1.6-.12,3.21-.33,4.86-.65l.22,1.41c-1.68.3-3.31.51-4.91.62s-3.56.16-5.88.15h-1.73v-1.37h1.73c2.22,0,4.12-.05,5.72-.17ZM234.85,108.77h-1.61v-22.45h1.61v22.45ZM238.72,96.75h-4.27v-1.38h4.27v1.38Z"/>
      <path class="cls-1" d="M253.37,98.14c-.58,1.41-1.35,2.66-2.33,3.73-.98,1.07-2.05,1.89-3.21,2.47l-.91-1.24c1.08-.5,2.08-1.23,3-2.2s1.64-2.07,2.18-3.33c.54-1.25.81-2.54.81-3.86v-2.25h1.32v2.25c0,1.54-.29,3.02-.86,4.43ZM259.86,91.64h-12.38v-1.32h12.38v1.32ZM254.47,91.09h-1.59v-4.38h1.59v4.38ZM255.31,97.41c.56,1.2,1.31,2.26,2.25,3.17.94.91,1.95,1.61,3.03,2.09l-.93,1.26c-1.17-.54-2.25-1.33-3.24-2.35-.99-1.03-1.78-2.22-2.37-3.59-.59-1.36-.89-2.79-.89-4.28v-2.25h1.31v2.25c0,1.27.28,2.5.84,3.71ZM264.75,108.74h-1.61v-22.41h1.61v22.41Z"/>
      <path class="cls-1" d="M276.79,98.15c2.42-.09,4.73-.3,6.93-.61l.1,1.22c-2.28.37-4.63.62-7.08.74-2.44.12-5.04.18-7.79.17l-.23-1.4c2.95,0,5.64-.03,8.06-.13ZM279.05,88.06c.85.36,1.51.87,1.98,1.52.47.66.71,1.42.71,2.28s-.23,1.63-.7,2.29c-.47.65-1.13,1.16-1.98,1.51-.85.36-1.83.53-2.94.53s-2.09-.18-2.94-.53c-.85-.36-1.51-.86-1.99-1.51-.47-.65-.71-1.41-.71-2.29s.24-1.62.71-2.28c.47-.66,1.14-1.16,1.99-1.52.85-.36,1.83-.54,2.94-.54s2.09.18,2.93.54ZM273.98,89.19c-.63.26-1.12.63-1.47,1.1-.35.47-.52,1-.52,1.58s.17,1.12.52,1.59c.35.47.84.83,1.47,1.09.63.26,1.34.39,2.14.39s1.49-.13,2.12-.39c.63-.26,1.12-.62,1.47-1.09.35-.47.53-1,.53-1.59s-.18-1.11-.53-1.58c-.35-.47-.84-.83-1.47-1.1-.62-.26-1.33-.39-2.12-.39s-1.51.13-2.14.39ZM276.83,108.04h-1.61v-9.28h1.61v9.28ZM286.04,102.99h-5.84v-1.26h5.84v1.26ZM287.18,108.76h-1.62v-22.41h1.62v22.41Z"/>
      <path class="cls-1" d="M297.92,97.87c-.62,1.46-1.42,2.77-2.42,3.92-.99,1.15-2.05,2.01-3.17,2.6l-.98-1.27c1.02-.51,2.01-1.28,2.95-2.32.94-1.04,1.71-2.2,2.3-3.5.59-1.3.89-2.57.89-3.83v-4.06h1.35v4.06c0,1.47-.31,2.94-.93,4.41ZM304.65,90.04h-12.61v-1.36h12.61v1.36ZM299.97,97.16c.58,1.23,1.36,2.32,2.32,3.27.96.95,1.97,1.67,3.03,2.14l-.93,1.27c-1.16-.55-2.24-1.36-3.25-2.42-1.01-1.06-1.82-2.29-2.43-3.68-.62-1.39-.92-2.81-.92-4.28v-4.06h1.31v4.06c0,1.24.29,2.47.88,3.69ZM309.69,108.74h-1.61v-22.41h1.61v22.41Z"/>
      <path class="cls-1" d="M325.02,98.64h-10.16v-10.31h10.16v10.31ZM316.45,97.34h7.01v-7.66h-7.01v7.66ZM319.5,107.39h-1.61v-6.12h1.61v6.12ZM332.77,108.2h-14.88v-1.36h14.88v1.36ZM331.14,91.8h-6.55v-1.37h6.55v1.37ZM331.17,96.59h-6.58v-1.37h6.58v1.37ZM332.23,102.72h-1.61v-16.36h1.61v16.36Z"/>
      <path class="cls-1" d="M349.76,97.18c2.25-.08,4.32-.24,6.23-.48l.08,1.24c-1.96.3-4.04.5-6.24.6-2.2.09-4.54.14-7,.13l-.22-1.37c2.52,0,4.91-.04,7.15-.12ZM355.12,89.46h-11.88v-1.36h11.88v1.36ZM347.21,97.7h-1.55v-8.61h1.55v8.61ZM357.62,101.18c1.12.31,1.97.76,2.56,1.35.59.59.88,1.31.88,2.15s-.29,1.54-.88,2.15c-.59.6-1.44,1.06-2.55,1.37s-2.44.47-3.99.47-2.89-.16-4.01-.47-1.96-.77-2.55-1.37c-.59-.6-.88-1.32-.88-2.15s.29-1.55.89-2.15c.59-.59,1.45-1.04,2.56-1.35,1.12-.31,2.45-.46,3.99-.46s2.87.15,3.99.46ZM350.53,102.31c-.88.21-1.56.52-2.04.93-.48.41-.72.89-.72,1.43s.24,1.02.72,1.43c.48.41,1.16.72,2.04.94.88.22,1.92.32,3.11.32s2.23-.11,3.12-.32c.88-.21,1.56-.53,2.03-.94.47-.41.71-.89.71-1.43s-.24-1.04-.71-1.44c-.47-.4-1.15-.71-2.04-.92s-1.92-.32-3.1-.32-2.23.11-3.11.32ZM352.69,97.7h-1.56v-8.61h1.56v8.61ZM360.24,91.84h-4.99v-1.35h4.99v1.35ZM360.24,95.77h-4.99v-1.35h4.99v1.35ZM360.99,100.21h-1.61v-13.88h1.61v13.88Z"/>
      <path class="cls-1" d="M376.32,89.48h-8.62v9h-1.59v-10.32h10.21v1.32ZM373.58,97.88c1.42-.08,2.86-.25,4.3-.51l.19,1.31c-1.49.27-2.96.45-4.42.55-1.46.09-3.42.14-5.89.14h-1.65v-1.35h1.65c2.46,0,4.39-.05,5.81-.14ZM375.93,94.33h-8.76v-1.36h8.76v1.36ZM370.14,107.47h-1.56v-6.04h1.56v6.04ZM383.54,108.2h-14.96v-1.36h14.96v1.36ZM382.43,102.91h-1.59v-16.59h1.59v16.59ZM385.91,94.78h-4.01v-1.37h4.01v1.37Z"/>
      <path class="cls-1" d="M394.98,102.74c2.35-.09,4.56-.29,6.65-.59l.11,1.24c-1.52.25-3.11.43-4.75.56s-3.22.21-4.71.25c-1.49.04-3.09.06-4.79.06l-.29-1.4c2.84,0,5.44-.04,7.79-.13ZM401.16,90.48h-13.57v-1.33h13.57v1.33ZM397.12,92.44c.79.34,1.4.82,1.85,1.44.44.62.67,1.35.67,2.19s-.22,1.55-.67,2.16c-.45.61-1.06,1.08-1.85,1.42s-1.7.51-2.73.51-1.95-.17-2.75-.51c-.8-.34-1.41-.81-1.84-1.42s-.64-1.33-.64-2.16.21-1.57.64-2.19c.43-.62,1.04-1.1,1.84-1.44.8-.34,1.72-.51,2.75-.51s1.94.17,2.73.51ZM392.44,93.56c-.57.24-1.02.58-1.33,1.02-.32.44-.47.93-.47,1.49s.16,1.04.47,1.47c.31.43.76.76,1.33.98.57.22,1.23.34,1.96.34s1.38-.11,1.94-.34c.57-.22,1.01-.55,1.31-.98s.46-.92.46-1.47-.15-1.06-.46-1.49c-.31-.44-.75-.77-1.31-1.02-.57-.24-1.21-.36-1.94-.36s-1.38.12-1.95.36ZM395.19,89.93h-1.61v-3.58h1.61v3.58ZM395.19,103.37h-1.61v-3.66h1.61v3.66ZM404.67,108.74h-1.6v-22.41h1.6v22.41ZM408.47,97.37h-4.25v-1.37h4.25v1.37Z"/>
      <path class="cls-1" d="M423.2,91.37h-13.38v-1.36h13.38v1.36ZM419.43,94.07c.82.43,1.46,1.03,1.92,1.8.46.77.69,1.65.69,2.64s-.23,1.86-.69,2.63c-.46.77-1.1,1.37-1.92,1.8-.82.43-1.75.64-2.8.64s-1.97-.21-2.79-.64c-.82-.43-1.46-1.03-1.93-1.8-.47-.77-.7-1.65-.7-2.63s.23-1.87.7-2.64c.46-.77,1.11-1.37,1.93-1.8.82-.43,1.75-.64,2.79-.64s1.98.21,2.8.64ZM414.63,95.27c-.59.32-1.05.76-1.39,1.33-.34.56-.51,1.2-.51,1.91s.17,1.33.51,1.89c.34.56.8,1,1.39,1.31.59.32,1.25.48,2,.48s1.41-.16,2-.48c.59-.32,1.05-.75,1.38-1.31s.5-1.19.5-1.89-.17-1.35-.5-1.91c-.33-.56-.79-1.01-1.38-1.33-.59-.32-1.25-.48-2-.48s-1.41.16-2,.48ZM417.39,90.71h-1.59v-4.14h1.59v4.14ZM427.18,108.74h-1.61v-22.41h1.61v22.41ZM431.05,97.06h-4.27v-1.35h4.27v1.35Z"/>
      <path class="cls-1" d="M452.81,105.41h-20.4v-1.36h20.4v1.36ZM449.23,90.05h-14.62v-1.33h14.62v1.33ZM442.21,104.78h-1.56v-8.82h1.56v8.82ZM450.17,94.28c-.03.87-.1,1.9-.21,3.08-.12,1.18-.29,2.46-.54,3.83l-1.65-.2c.26-1.31.46-2.55.58-3.71.12-1.16.2-2.19.23-3.08.03-.9.04-1.97.04-3.21v-2.26h1.6v2.26c0,1.33-.01,2.43-.04,3.3Z"/>
      <path class="cls-1" d="M472.35,102.95h-10.19v-14.32h10.19v14.32ZM463.71,101.63h7.06v-11.69h-7.06v11.69ZM478.41,108.74h-1.61v-22.41h1.61v22.41ZM482.28,96.84h-4.27v-1.4h4.27v1.4Z"/>
      <path class="cls-1" d="M504.12,100.87h-20.5v-1.36h20.5v1.36ZM501.39,96.26h-15.06v-8.63h15.06v8.63ZM487.89,94.97h11.92v-6.02h-11.92v6.02ZM494.59,108.72h-1.56v-8.44h1.56v8.44Z"/>
      <path class="cls-1" d="M517.75,96.23h-8.68v6.2h-1.62v-7.54h8.7v-5.05h-8.75v-1.35h10.36v7.74ZM514.98,101.72c1.77-.12,3.64-.33,5.61-.63l.16,1.36c-2.01.31-3.92.53-5.71.65-1.79.12-3.71.18-5.76.17h-1.83v-1.37h1.83c2.03,0,3.93-.06,5.71-.18ZM524.52,108.77h-1.59v-22.45h1.59v22.45Z"/>
      <path class="cls-1" d="M546.18,91.69h-11.36v-1.33h11.36v1.33ZM542.98,93.98c.73.42,1.3,1.02,1.71,1.78.42.77.62,1.64.62,2.61s-.21,1.84-.62,2.61c-.41.77-.99,1.36-1.71,1.8-.73.43-1.56.65-2.49.65s-1.75-.22-2.48-.65c-.73-.43-1.29-1.03-1.7-1.8s-.61-1.64-.61-2.6.2-1.83.61-2.6.97-1.37,1.7-1.79c.73-.42,1.55-.63,2.48-.63s1.76.21,2.49.63ZM538.77,95.21c-.52.33-.92.76-1.21,1.31-.29.55-.43,1.17-.43,1.85s.14,1.31.44,1.87c.29.56.69.99,1.21,1.3.51.31,1.08.46,1.71.46s1.21-.15,1.73-.46c.52-.31.92-.74,1.22-1.3.29-.56.44-1.18.44-1.87s-.15-1.3-.44-1.85c-.3-.55-.7-.99-1.22-1.31-.52-.33-1.09-.49-1.73-.49s-1.2.16-1.71.49ZM541.3,91.15h-1.6v-4.14h1.6v4.14ZM548.96,107.58h-1.51v-20.68h1.51v20.68ZM552.83,97.23h-4.47v-1.36h4.47v1.36ZM553.86,108.74h-1.55v-22.41h1.55v22.41Z"/>
      <path class="cls-1" d="M577.74,100.57h-20.4v-1.35h20.4v1.35ZM566.75,93c-.87,1.06-1.98,1.95-3.32,2.65-1.34.7-2.73,1.19-4.17,1.47l-.65-1.28c1.23-.2,2.48-.61,3.72-1.22,1.25-.61,2.28-1.36,3.09-2.25.81-.89,1.22-1.85,1.22-2.86v-1.05h1.41v1.05c0,1.27-.44,2.44-1.31,3.5ZM575.76,89.15h-16.48v-1.33h16.48v1.33ZM568.29,108.72h-1.56v-8.68h1.56v8.68ZM569.63,92.37c.82.89,1.85,1.64,3.1,2.25,1.25.61,2.49,1.02,3.73,1.22l-.62,1.28c-1.45-.28-2.84-.77-4.19-1.46s-2.45-1.58-3.32-2.65c-.87-1.07-1.3-2.24-1.3-3.51v-1.05h1.38v1.05c0,1.02.41,1.97,1.22,2.86Z"/>
      <path class="cls-1" d="M585.35,97.33c-.45,1.42-1.08,2.69-1.9,3.81-.81,1.12-1.74,2-2.79,2.63l-1.05-1.21c.99-.58,1.88-1.37,2.66-2.39s1.39-2.15,1.83-3.41c.44-1.26.65-2.52.65-3.78v-4.49h1.28v4.49c0,1.47-.23,2.92-.68,4.34ZM586.9,96.49c.41,1.19,1,2.28,1.74,3.26.75.98,1.6,1.75,2.56,2.31l-.95,1.23c-1.03-.62-1.94-1.48-2.73-2.58s-1.4-2.33-1.83-3.68-.65-2.72-.65-4.1v-4.43h1.24v4.43c0,1.18.21,2.36.62,3.55ZM593.29,95.91h-4.58v-1.4h4.58v1.4ZM594.3,107.57h-1.51v-20.72h1.51v20.72ZM598.94,108.74h-1.56v-22.41h1.56v22.41Z"/>
      <path class="cls-1" d="M622.79,105.77h-20.52v-1.37h20.52v1.37ZM616.69,88.56c1.23.47,2.18,1.13,2.87,1.99.69.86,1.03,1.86,1.03,2.99s-.34,2.1-1.03,2.96-1.64,1.52-2.87,1.99c-1.23.47-2.63.71-4.21.71s-2.96-.23-4.2-.71c-1.23-.47-2.19-1.13-2.88-1.99s-1.04-1.84-1.04-2.96.35-2.13,1.04-2.99c.69-.86,1.65-1.52,2.88-1.99,1.23-.47,2.63-.7,4.2-.7s2.99.24,4.21.7ZM609.08,89.72c-1,.36-1.78.88-2.35,1.54-.57.66-.85,1.42-.85,2.28s.29,1.6.86,2.26c.57.66,1.35,1.18,2.35,1.55,1,.37,2.12.56,3.38.56s2.39-.19,3.39-.56c1-.37,1.78-.89,2.35-1.55.57-.66.85-1.41.85-2.26s-.28-1.61-.85-2.28c-.57-.67-1.35-1.18-2.35-1.54-1-.36-2.13-.54-3.39-.53-1.26,0-2.39.17-3.39.53ZM609.08,104.79h-1.56v-6.86h1.56v6.86ZM617.52,104.79h-1.61v-6.86h1.61v6.86Z"/>
      <path class="cls-1" d="M626.27,106.71c-.21-.13-.38-.29-.49-.5-.12-.21-.18-.43-.18-.67s.06-.47.18-.69c.12-.21.28-.38.49-.5.21-.12.44-.18.69-.18s.46.06.67.18c.21.12.38.28.49.5.12.21.18.44.18.69s-.06.46-.18.67c-.12.21-.28.38-.49.5-.21.13-.44.19-.69.19s-.46-.06-.67-.19Z"/>
    </g>
  </g>
</svg>