<?xml version="1.0" encoding="UTF-8"?>
<svg id="_레이어_2" data-name="레이어 2" xmlns="http://www.w3.org/2000/svg" viewBox="0 0 250.88 250.88">
  <defs>
    <style>
      .cls-1 {
        fill: #fdf5e0;
      }

      .cls-2 {
        fill: #9d9793;
      }
    </style>
  </defs>
  <g id="_레이어_1-2" data-name="레이어 1">
    <circle class="cls-1" cx="125.44" cy="125.44" r="125.44"/>
    <g>
      <path class="cls-2" d="M182.04,56.85c11.28,1.35,19.7,9.85,20.94,21.13v9.3c-1.25,12.23-11.38,21.42-23.86,21.17-9.45-.19-17.17,7.6-17.18,17.01v7.57c1.79.57,3.34,1.21,4.94,2.2,5.8,3.58,10.72,8.32,14.37,14.09,2.65,4.18,4.63,9.56,3.49,14.48-.91,3.94-4.07,6.56-8.11,6.93-6.35.58-12.91-3.42-17.75-7.47-4.73,3.76-11.1,7.51-17.35,7.4-4.68-.08-8.31-3.38-8.85-8.05-.83-7.18,4.6-15.29,9.35-20.35,3.59-3.82,8.89-7.81,13.96-9.23l.03-8.31c.04-12.64,10.93-22.54,23.52-22.27,9.26.2,17.39-7.03,17.42-16.34l.02-6.57c.02-6.78-4.27-12.73-10.22-15.3-6.37-2.75-14.03-1.54-18.79,3.54l-32.83,35.02,4.65,4.66c1.26,1.26,1.3,3.18-.06,4.45l-56.6,56.6-19.93-19.92,56.5-56.5c1.33-1.51,3.33-1.4,4.67-.05l6.55,6.57,31.82-34.06c4.11-4.4,9.34-7.04,15.22-7.69h4.07ZM141.44,164.7c1.73.08,3.27-.25,4.83-.75,2.5-.93,4.76-2.16,7.02-3.83-4.81-2.2-7.86-6.54-8.55-11.91-3.01,3.31-6.68,9.47-6.04,14,.26,1.43,1.19,2.34,2.75,2.49ZM176.5,164.67c1.49-.26,2.29-1.17,2.51-2.55.57-4.43-2.9-10.36-5.85-13.69-.7,5.36-3.84,9.55-8.63,11.68,3.21,2.4,7.91,4.94,11.97,4.55Z"/>
      <path class="cls-2" d="M64.18,183.82h-2.71c-7.08-1.23-12.45-6.68-13.57-13.76v-2.52c.53-2.75,1.57-5.15,3.52-7.16l7.64-7.63,19.92,19.92-7.85,7.81c-1.95,1.94-4.4,2.83-6.94,3.35Z"/>
    </g>
  </g>
</svg>