<?xml version="1.0" encoding="UTF-8"?>
<svg id="_레이어_2" data-name="레이어 2" xmlns="http://www.w3.org/2000/svg" viewBox="0 0 112.87 95.18">
  <defs>
    <style>
      .cls-1 {
        fill: #ef7d40;
      }
    </style>
  </defs>
  <g id="_레이어_1-2" data-name="레이어 1">
    <g>
      <path class="cls-1" d="M76.06,95.18c-10.06,0-19.61-.72-29.34-2.04-3.95-.54-8.24-2.33-10.29-5.75-5.58-9.27-4.01-20.62,2.68-28.93,4.1-5.09,9.29-8.77,15.4-11.39,13.19-5.64,54.76-18.2,57.97,4.01,1.02,7.09-.05,14.43-2.61,21.17-2.19,5.75-5.86,10.32-10.51,14.26-6.51,5.52-14.36,8.67-23.3,8.66ZM92.21,53.57c2.42-1.7.77-5.05-.6-6.11-.36-.28-1.76-.29-1.8.13-.05.47.86,7.06,2.4,5.98ZM63.63,57.98c.7-1.44.49-4.09-.55-5.3-.29-.34-1.74-.59-1.97-.2s-.24,1.13-.12,1.72c.82,4.36-.34,2.8.84,4.37.22.29,1.62-.18,1.81-.58ZM101.19,71.91c.04-.47-.83-1.62-1.26-1.51s-1.05.73-1.26,1.19l-1.62,3.44c-.2.42.2,1.45.61,1.6,1.65.62,3.36-2.6,3.53-4.72ZM79.51,78.39c.19-1.67.1-4.1-.19-5.24-.12-.48-1.64-1.14-1.96-.82s-.49,1.06-.49,1.67l.02,3.74c0,.57.26,1.3.6,1.63s1.96-.47,2.02-.98ZM51.59,81.99c1.85-.09,1.16-4.19-1.82-6.58-.35-.28-1.91.03-2.02.47s.1,1.08.47,1.58c2.67,3.63,1.62,4.62,3.37,4.54Z"/>
      <path class="cls-1" d="M31.35,82.21c-7.5,1.08-14.75-.65-20.97-4.51C3.11,73.2-.51,65.68.06,57.09c.5-7.56,3.43-14.3,7.6-20.58,4.95-7.47,11.23-13.34,19.3-17.36C41.22,12.04,40.76,2.06,54.9.18c7.2-.96,13.59,2.01,17.18,8.31,4.87,8.5,4.46,19.25,3.56,29.08-6.58,1.72-12.67,3.46-19.02,5.69-16.29,6.53-29.77,19.37-25.28,38.96ZM60.56,9.84c.25-.37.1-1.51-.24-1.82-1.46-1.33-4.47-1.66-6.15-1.02-.46.18-.87,1.79-.42,1.91,1.11.28,6.32,1.64,6.81.93ZM35.67,28.48c.31.32,1.36.59,1.68.33,1.67-1.32-1.09-4.06-2.77-4.99-.41-.23-1.72.08-1.74.54-.01.38.19,1.37.45,1.64l2.38,2.47ZM65.28,30.47c.4.17,1.69-.3,1.64-.68-.36-2.83-4.33-3.56-5.76-3.27-.42.09-1.08,1.46-.74,1.69.26.18.78.48,1.21.67l3.65,1.59ZM36.11,51.25c1.24-2.41-3.14-4.68-5.54-4.41-.51.06-1.15,1.75-.71,1.94l1.55.68c2.87,1.26,3.96,3.24,4.7,1.79ZM12.04,49.88c-.32-.42-2.13-.3-2.16.2-.03.4.1,1.05.27,1.62l1.06,3.49c.15.49.75,1.19,1.16,1.33,1.3.44,2.32-3.14-.32-6.65Z"/>
    </g>
  </g>
</svg>