<?xml version="1.0" encoding="UTF-8"?>
<svg id="_레이어_2" data-name="레이어 2" xmlns="http://www.w3.org/2000/svg" viewBox="0 0 796.5 114.4">
  <defs>
    <style>
      .cls-1 {
        fill: #4d4c4c;
      }
    </style>
  </defs>
  <g id="_레이어_1-2" data-name="레이어 1">
    <g>
      <path class="cls-1" d="M5.13,19.44c-.35-.21-.63-.5-.84-.85-.21-.36-.32-.75-.32-1.17s.11-.81.32-1.17c.21-.36.49-.63.84-.84s.73-.3,1.14-.3c.43,0,.83.1,1.19.3.36.2.65.48.85.84s.3.75.3,1.17-.1.81-.3,1.17-.49.64-.85.85c-.37.21-.76.32-1.19.32-.41,0-.79-.11-1.14-.32Z"/>
      <path class="cls-1" d="M30.17,20.95h-10.19V6.63h10.19v14.32ZM21.53,19.63h7.06V7.93h-7.06v11.69ZM36.23,26.74h-1.61V4.33h1.61v22.41ZM40.1,14.84h-4.27v-1.4h4.27v1.4Z"/>
      <path class="cls-1" d="M61.98,23.82h-20.52v-1.37h20.52v1.37ZM51.03,13.49c-.83,1.15-1.92,2.08-3.26,2.81-1.34.72-2.79,1.25-4.37,1.57l-.66-1.27c1.41-.25,2.73-.7,3.96-1.34,1.24-.64,2.24-1.45,3.01-2.44.77-.99,1.15-2.08,1.15-3.28v-.5h1.41v.5c0,1.49-.42,2.81-1.25,3.95ZM59.95,9.42h-16.53v-1.36h16.53v1.36ZM52.46,8.54h-1.56v-3.68h1.56v3.68ZM52.46,23.18h-1.56v-6.13h1.56v6.13ZM53.65,12.81c.78.99,1.78,1.8,3,2.44,1.23.64,2.54,1.08,3.94,1.34l-.65,1.27c-1.56-.32-3.01-.84-4.34-1.57-1.34-.72-2.43-1.66-3.27-2.81-.84-1.15-1.26-2.46-1.26-3.95v-.5h1.42v.5c0,1.19.39,2.29,1.16,3.28Z"/>
      <path class="cls-1" d="M74.33,12.85c-.73,1.92-1.86,3.69-3.4,5.31-1.54,1.62-3.49,3.02-5.84,4.18l-.89-1.27c2.11-1.05,3.88-2.29,5.31-3.73s2.52-3.02,3.24-4.76c.73-1.74,1.09-3.6,1.09-5.57v-.24h1.57c0,2.13-.36,4.16-1.09,6.07ZM74.67,8.15h-9.5v-1.37h9.5v1.37ZM81.17,26.74h-1.61V4.33h1.61v22.41ZM84.94,14.98h-4.2v-1.36h4.2v1.36Z"/>
      <path class="cls-1" d="M100.58,16.34c2.52-.09,4.9-.3,7.14-.62l.12,1.17c-2.29.4-4.66.66-7.11.79-2.45.13-5.07.19-7.88.19l-.24-1.41c2.8.02,5.46-.02,7.98-.11ZM99.74,10.03c-.56,1.01-1.32,1.87-2.27,2.59-.96.72-2.04,1.27-3.26,1.65l-.84-1.28c1.1-.31,2.1-.77,2.98-1.38s1.59-1.33,2.1-2.17c.51-.84.77-1.73.77-2.67v-1.45h1.36v1.45c0,1.17-.28,2.26-.84,3.26ZM101.01,26.04h-1.59v-9.28h1.59v9.28ZM101.59,9.22c.49.75,1.18,1.4,2.05,1.95.87.54,1.85.95,2.95,1.22l-.78,1.31c-1.23-.35-2.31-.85-3.26-1.5-.95-.65-1.69-1.44-2.23-2.37-.54-.93-.81-1.95-.81-3.07v-1.45h1.35v1.45c0,.88.25,1.7.74,2.45ZM111.03,26.76h-1.57V4.35h1.57v22.41Z"/>
      <path class="cls-1" d="M135.63,16.16h-20.5v-1.31h20.5v1.31ZM133.03,22.76h-13.75v2.91h-1.61v-4.08h13.78v-2.17h-13.81v-1.24h15.4v4.58ZM133.78,26.39h-16.11v-1.22h16.11v1.22ZM132.94,9.52h-13.53v2.67h-1.57v-3.82h13.51v-2.07h-13.6v-1.19h15.2v4.42ZM133.35,12.95h-15.51v-1.21h15.51v1.21Z"/>
      <path class="cls-1" d="M157.17,9.37h-13.38v-1.36h13.38v1.36ZM153.4,12.07c.82.43,1.46,1.03,1.92,1.8s.69,1.65.69,2.64-.23,1.86-.69,2.63-1.1,1.37-1.92,1.8c-.82.43-1.75.64-2.8.64s-1.97-.21-2.79-.64c-.82-.43-1.46-1.03-1.93-1.8-.46-.77-.7-1.65-.7-2.63s.23-1.87.7-2.64c.47-.77,1.11-1.37,1.93-1.8.82-.43,1.75-.64,2.79-.64s1.98.21,2.8.64ZM148.6,13.27c-.59.32-1.05.76-1.39,1.33-.34.56-.51,1.2-.51,1.91s.17,1.33.51,1.89c.34.56.8,1,1.39,1.31.59.32,1.25.48,2,.48s1.41-.16,2-.48c.59-.32,1.05-.75,1.38-1.31.33-.56.5-1.19.5-1.89s-.17-1.35-.5-1.91c-.34-.56-.8-1.01-1.38-1.33s-1.25-.48-2-.48-1.41.16-2,.48ZM151.36,8.71h-1.59v-4.14h1.59v4.14ZM161.15,26.74h-1.61V4.33h1.61v22.41ZM165.02,15.06h-4.27v-1.35h4.27v1.35Z"/>
      <path class="cls-1" d="M186.78,23.41h-20.4v-1.36h20.4v1.36ZM183.2,8.05h-14.62v-1.33h14.62v1.33ZM176.18,22.78h-1.56v-8.82h1.56v8.82ZM184.14,12.28c-.03.87-.1,1.9-.21,3.08-.12,1.18-.29,2.46-.54,3.83l-1.65-.2c.26-1.31.46-2.55.58-3.71s.2-2.19.23-3.08.04-1.97.04-3.21v-2.26h1.6v2.26c0,1.33-.02,2.43-.04,3.3Z"/>
      <path class="cls-1" d="M197.71,20.4h-1.59V6.56h1.59v13.84ZM203.14,19.37c1.71-.16,3.47-.43,5.26-.81l.23,1.4c-1.85.37-3.65.63-5.39.79-1.74.15-3.53.23-5.38.23h-1.74v-1.37h1.74c1.8,0,3.56-.07,5.27-.23ZM212.38,26.74h-1.61V4.33h1.61v22.41ZM216.15,14.79h-4.2v-1.36h4.2v1.36Z"/>
      <path class="cls-1" d="M224.14,15.21c-.57,1.5-1.34,2.84-2.3,4.01-.96,1.17-2,2.07-3.12,2.69l-1.04-1.28c1.04-.53,2.02-1.33,2.95-2.38.92-1.05,1.66-2.25,2.21-3.59.55-1.34.83-2.67.83-3.99v-4.33h1.33v4.33c0,1.53-.29,3.05-.86,4.55ZM226.13,14.52c.56,1.28,1.3,2.42,2.22,3.42.92,1,1.9,1.75,2.94,2.25l-.96,1.32c-1.14-.6-2.2-1.46-3.16-2.59s-1.74-2.41-2.32-3.85c-.58-1.44-.87-2.91-.87-4.4v-4.33h1.31v4.33c0,1.29.28,2.58.84,3.86ZM235.27,13.5h-6.41v-1.32h6.41v1.32ZM236.05,26.77h-1.57V4.33h1.57v22.45Z"/>
      <path class="cls-1" d="M256.44,10.83c-.86,1.5-2.08,2.79-3.67,3.88-1.59,1.09-3.49,1.94-5.71,2.55l-.65-1.31c2.01-.56,3.73-1.3,5.17-2.21,1.44-.92,2.54-2,3.31-3.23.77-1.24,1.15-2.58,1.15-4.02v-.63h1.69c0,1.83-.43,3.49-1.28,4.99ZM256.86,7.19h-9.47v-1.35h9.47v1.35ZM263.79,26.41h-14.05v-8.2h14.05v8.2ZM251.34,25.07h10.85v-5.51h-10.85v5.51ZM263.79,17.11h-1.59V4.33h1.59v12.78ZM267.27,11.35h-3.92v-1.33h3.92v1.33Z"/>
      <path class="cls-1" d="M275,15.85c-.61,1.47-1.41,2.78-2.39,3.93-.99,1.15-2.03,2.02-3.12,2.6l-.99-1.27c1.02-.51,2.01-1.28,2.95-2.32s1.71-2.21,2.3-3.51c.59-1.3.88-2.57.88-3.82v-4.06h1.28v4.06c0,1.46-.3,2.92-.91,4.39ZM281.39,8.04h-12.11v-1.36h12.11v1.36ZM277,15.05c.54,1.21,1.28,2.31,2.19,3.29s1.89,1.72,2.93,2.22l-.94,1.27c-1.11-.57-2.14-1.39-3.11-2.48-.96-1.09-1.74-2.33-2.32-3.71-.58-1.39-.87-2.78-.87-4.18v-4.06h1.29v4.06c0,1.18.27,2.37.82,3.59ZM286.07,26.74h-1.61V4.33h1.61v22.41ZM289.95,14.94h-4.27v-1.38h4.27v1.38Z"/>
      <path class="cls-1" d="M301.7,12.85c-.73,1.92-1.86,3.69-3.4,5.31-1.54,1.62-3.49,3.02-5.84,4.18l-.89-1.27c2.11-1.05,3.88-2.29,5.31-3.73s2.52-3.02,3.24-4.76c.73-1.74,1.09-3.6,1.09-5.57v-.24h1.57c0,2.13-.36,4.16-1.09,6.07ZM302.04,8.15h-9.5v-1.37h9.5v1.37ZM308.54,26.74h-1.61V4.33h1.61v22.41ZM312.31,14.98h-4.2v-1.36h4.2v1.36Z"/>
      <path class="cls-1" d="M340.46,16.81h-20.4v-1.31h20.4v1.31ZM329.55,10.92c-.84.9-1.93,1.61-3.28,2.13-1.34.52-2.81.88-4.4,1.09l-.52-1.27c1.39-.14,2.7-.44,3.92-.88,1.23-.44,2.22-1.03,2.98-1.75.76-.72,1.14-1.54,1.14-2.46v-.34h1.41v.34c0,1.19-.42,2.24-1.26,3.14ZM338.35,7.91h-16.14v-1.33h16.14v1.33ZM334.41,19.73c1.14.28,2.01.7,2.62,1.25.61.55.91,1.23.91,2.01s-.3,1.44-.91,1.99-1.48.97-2.62,1.25c-1.14.28-2.53.43-4.15.43s-2.99-.14-4.14-.43c-1.16-.28-2.04-.7-2.65-1.25s-.91-1.21-.91-1.99.3-1.46.91-2.01c.61-.55,1.49-.97,2.65-1.25,1.15-.28,2.54-.42,4.14-.42s3.01.14,4.14.42ZM327.02,20.83c-.91.19-1.61.47-2.1.84-.49.37-.73.81-.73,1.32s.24.94.73,1.29c.49.36,1.19.63,2.1.82.91.19,2,.29,3.26.29s2.33-.1,3.24-.29c.91-.19,1.61-.46,2.09-.82.49-.36.73-.79.73-1.29s-.24-.95-.73-1.32c-.49-.37-1.18-.65-2.09-.84-.91-.19-1.99-.29-3.24-.29s-2.34.1-3.25.29ZM331.04,7.22h-1.57v-3h1.57v3ZM331.03,19.78h-1.56v-3.44h1.56v3.44ZM332.27,10.24c.76.72,1.75,1.31,2.98,1.75,1.22.45,2.53.74,3.9.88l-.49,1.27c-1.59-.2-3.06-.56-4.4-1.09-1.34-.52-2.43-1.23-3.27-2.13-.84-.9-1.26-1.95-1.26-3.14v-.34h1.4v.34c0,.91.38,1.73,1.14,2.46Z"/>
      <path class="cls-1" d="M363.01,17.63h-20.5v-1.33h20.5v1.33ZM346.78,25.31h-1.59v-5.19h1.59v5.19ZM360.71,26.2h-15.51v-1.36h15.51v1.36ZM346.87,8.11h11.78v-3.06h1.59v8.86h-14.96V5.05h1.59v3.06ZM358.65,12.58v-3.22h-11.78v3.22h11.78ZM353.66,22.28h-1.6v-5.36h1.6v5.36Z"/>
      <path class="cls-1" d="M379.12,9.39h-13.61v-1.33h13.61v1.33ZM375.21,12.07c.83.43,1.48,1.03,1.94,1.8.46.78.7,1.65.7,2.63s-.23,1.86-.7,2.63c-.47.77-1.11,1.37-1.94,1.8-.83.43-1.77.64-2.83.64s-2.02-.21-2.86-.64c-.84-.43-1.49-1.03-1.96-1.8-.46-.77-.7-1.65-.7-2.63s.23-1.87.7-2.64c.47-.77,1.12-1.37,1.96-1.8.84-.43,1.79-.64,2.86-.64s2,.21,2.83.64ZM370.32,13.27c-.61.32-1.09.76-1.43,1.33-.34.56-.51,1.2-.51,1.91s.17,1.33.51,1.89c.34.56.82,1,1.43,1.31.61.32,1.29.48,2.06.48s1.43-.16,2.03-.48c.6-.32,1.07-.75,1.41-1.31.34-.56.51-1.19.51-1.89s-.17-1.35-.51-1.91c-.34-.56-.81-1.01-1.41-1.33-.6-.32-1.28-.48-2.03-.48s-1.45.16-2.06.48ZM373.11,8.87h-1.61v-4.35h1.61v4.35ZM383.38,26.74h-1.61V4.33h1.61v22.41Z"/>
      <path class="cls-1" d="M414.27,14.75h-20.52v-1.36h20.52v1.36ZM411.68,20.07h-13.79v5.73h-1.61v-7.06h15.4v1.33ZM411.85,26.41h-15.56v-1.33h15.56v1.33ZM411.02,6.79h-14.64v-1.33h14.64v1.33ZM404.75,19.33h-1.59v-5.05h1.59v5.05ZM411.36,10.58c-.08,1.07-.29,2.29-.62,3.68l-1.56-.23c.23-.95.39-1.83.5-2.65s.16-1.54.19-2.15.04-1.33.04-2.17v-1.6h1.59v1.6c0,1.28-.04,2.45-.13,3.52Z"/>
      <path class="cls-1" d="M436.63,15.56h-20.4v-1.33h20.4v1.33ZM430.65,5.19c1.18.3,2.07.74,2.69,1.32.62.58.93,1.29.93,2.12s-.31,1.55-.93,2.13c-.62.58-1.52,1.03-2.69,1.33-1.18.3-2.59.46-4.23.47-1.64,0-3.05-.17-4.23-.47-1.18-.3-2.08-.75-2.7-1.33-.62-.58-.93-1.29-.93-2.13s.31-1.54.93-2.12c.62-.58,1.52-1.02,2.7-1.32,1.18-.3,2.59-.44,4.23-.44s3.05.15,4.23.44ZM433.96,22.5h-13.58v2.97h-1.59v-4.2h13.61v-2.3h-13.66v-1.26h15.22v4.79ZM434.67,26.44h-15.88v-1.31h15.88v1.31ZM423.11,6.3c-.94.21-1.65.52-2.14.92-.5.4-.74.87-.74,1.42s.25,1.04.74,1.44c.49.4,1.2.71,2.13.93.93.22,2.04.32,3.33.32s2.4-.11,3.33-.32c.93-.21,1.65-.53,2.14-.93.5-.41.74-.88.74-1.43s-.25-1.01-.75-1.41c-.5-.4-1.22-.7-2.16-.92-.94-.21-2.04-.32-3.31-.31-1.27,0-2.37.09-3.31.3Z"/>
      <path class="cls-1" d="M465.38,18.46h-20.4v-1.37h20.4v1.37ZM454.46,10.19c-.88,1.1-2.01,2-3.39,2.71-1.38.71-2.8,1.2-4.28,1.47l-.67-1.31c1.29-.19,2.58-.6,3.85-1.23,1.27-.62,2.33-1.39,3.15-2.32.83-.92,1.24-1.92,1.24-2.98v-1.36h1.41v1.36c0,1.34-.44,2.56-1.32,3.66ZM455.94,26.74h-1.56v-8.66h1.56v8.66ZM457.28,9.5c.84.94,1.9,1.71,3.19,2.34,1.28.62,2.55,1.03,3.81,1.23l-.66,1.31c-1.46-.27-2.88-.76-4.26-1.48-1.38-.72-2.51-1.62-3.39-2.72s-1.33-2.31-1.33-3.63v-1.36h1.38v1.36c0,1.04.42,2.03,1.26,2.96Z"/>
      <path class="cls-1" d="M483.1,6.36c.88.43,1.56,1.04,2.06,1.83.49.79.74,1.69.74,2.72s-.25,1.9-.74,2.68c-.5.78-1.18,1.38-2.06,1.82-.88.43-1.87.65-2.99.65s-2.11-.22-2.99-.65c-.88-.43-1.56-1.04-2.06-1.82-.49-.78-.74-1.67-.74-2.68s.25-1.92.74-2.71c.5-.79,1.18-1.4,2.06-1.83.88-.43,1.87-.65,2.99-.65s2.11.22,2.99.65ZM480.24,22.31c-.42.91-1.02,1.72-1.79,2.44-.77.72-1.67,1.28-2.7,1.69l-.83-1.21c.91-.36,1.72-.84,2.43-1.45.7-.61,1.25-1.28,1.65-2.02.4-.74.6-1.47.6-2.18v-1.38h1.28v1.38c0,.91-.21,1.82-.63,2.73ZM477.93,7.56c-.64.33-1.14.78-1.5,1.37-.36.59-.54,1.25-.54,1.97s.18,1.36.54,1.94c.36.58.86,1.03,1.5,1.36.64.33,1.37.5,2.18.51.81-.02,1.54-.19,2.18-.51.64-.33,1.14-.78,1.5-1.36.36-.58.54-1.23.54-1.94s-.18-1.39-.54-1.97c-.37-.59-.87-1.05-1.5-1.37-.64-.33-1.37-.49-2.18-.48-.81,0-1.54.15-2.18.48ZM481.61,21.86c.33.76.8,1.44,1.42,2.05.62.61,1.37,1.09,2.24,1.45l-.7,1.26c-1.01-.41-1.86-.98-2.56-1.71-.7-.74-1.23-1.57-1.57-2.49-.35-.92-.52-1.87-.52-2.83v-1.38h1.21v1.38c0,.76.16,1.52.49,2.28ZM488.69,22.23c-.36.92-.89,1.77-1.59,2.55-.7.78-1.54,1.39-2.51,1.83l-.71-1.26c.85-.39,1.58-.91,2.21-1.57.62-.66,1.1-1.36,1.43-2.11s.49-1.45.49-2.09v-1.38h1.23v1.38c0,.85-.18,1.73-.54,2.65ZM490.14,21.83c.39.74.94,1.41,1.64,2.01.71.6,1.52,1.06,2.43,1.38l-.81,1.21c-1.04-.39-1.95-.94-2.73-1.64-.78-.7-1.38-1.51-1.79-2.41-.41-.91-.62-1.84-.62-2.81v-1.38h1.29v1.38c0,.76.19,1.51.58,2.25ZM492.16,17.19h-1.6V4.35h1.6v12.83Z"/>
      <path class="cls-1" d="M504.93,12.82c-.61,1.78-1.55,3.43-2.82,4.97-1.27,1.54-2.88,2.88-4.82,4.04l-.96-1.19c1.76-1.05,3.24-2.26,4.43-3.63,1.19-1.37,2.07-2.86,2.66-4.47s.88-3.28.88-5.03v-.25h1.56c0,1.93-.3,3.78-.91,5.56ZM504.97,8.61h-7.77v-1.35h7.77v1.35ZM509.64,15.03h-6.03v-1.33h6.03v1.33ZM510.62,25.54h-1.55V4.95h1.55v20.59ZM515.3,26.74h-1.54V4.33h1.54v22.41Z"/>
      <path class="cls-1" d="M531.54,15.31c-.6,1.51-1.4,2.85-2.39,4.02-.99,1.16-2.06,2.05-3.22,2.65l-1.03-1.33c1.06-.52,2.06-1.29,3.01-2.34.95-1.04,1.72-2.24,2.31-3.59.59-1.35.88-2.7.88-4.05v-4.33h1.33v4.33c0,1.58-.3,3.13-.9,4.65ZM533.55,14.57c.59,1.3,1.36,2.46,2.32,3.47.96,1.02,1.96,1.77,3.01,2.27l-.99,1.26c-1.14-.58-2.22-1.42-3.22-2.55-1.01-1.12-1.81-2.41-2.42-3.88s-.91-2.96-.91-4.48v-4.33h1.35v4.33c0,1.3.29,2.6.88,3.9ZM543.34,26.77h-1.61V4.33h1.61v22.45Z"/>
      <path class="cls-1" d="M557.53,11.22c-.87,1.57-2.1,2.94-3.7,4.1-1.59,1.16-3.46,2.1-5.61,2.8l-.7-1.31c1.94-.63,3.63-1.45,5.06-2.45,1.44-1,2.55-2.15,3.35-3.44s1.19-2.69,1.19-4.18v-.66h1.7c0,1.85-.42,3.57-1.29,5.14ZM557.92,7.45h-9.5v-1.37h9.5v1.37ZM552.57,25.34h-1.59v-6.18h1.59v6.18ZM565.97,26.2h-14.98v-1.36h14.98v1.36ZM564.86,20.83h-1.61V4.33h1.61v16.5ZM568.34,12.71h-4.01v-1.38h4.01v1.38Z"/>
      <path class="cls-1" d="M579.39,7.08c.85.64,1.52,1.54,2,2.71.48,1.17.72,2.53.72,4.09s-.24,2.89-.72,4.06c-.48,1.17-1.14,2.07-2,2.7-.86.63-1.83.95-2.93.95s-2.08-.32-2.93-.95c-.86-.63-1.52-1.54-2.01-2.7s-.72-2.52-.72-4.06.24-2.92.72-4.09,1.15-2.07,2.01-2.71c.85-.64,1.83-.96,2.93-.96s2.08.32,2.93.96ZM574.32,8.33c-.62.54-1.11,1.29-1.46,2.24-.35.96-.52,2.06-.52,3.3s.17,2.31.52,3.27c.35.96.83,1.71,1.46,2.24.63.53,1.34.8,2.13.8s1.5-.27,2.13-.8c.62-.53,1.11-1.28,1.45-2.24.35-.96.52-2.05.52-3.27s-.17-2.34-.52-3.3c-.35-.96-.83-1.7-1.45-2.24-.62-.54-1.33-.81-2.14-.81s-1.49.27-2.12.81ZM588.29,26.77h-1.61V4.33h1.61v22.45Z"/>
      <path class="cls-1" d="M619.17,23.87h-20.52v-1.35h20.52v1.35ZM617.96,9.32h-18.26v-1.36h18.26v1.36ZM612.73,11.47c1.1.35,1.94.85,2.53,1.51.59.66.88,1.44.88,2.36s-.29,1.67-.88,2.33c-.59.66-1.43,1.16-2.53,1.51-1.1.35-2.38.53-3.87.53s-2.78-.18-3.88-.53c-1.1-.35-1.94-.85-2.52-1.51-.58-.66-.88-1.43-.88-2.33s.29-1.7.88-2.36c.58-.66,1.42-1.16,2.51-1.51,1.09-.35,2.39-.52,3.88-.51,1.48,0,2.77.16,3.87.51ZM605.86,12.64c-.86.25-1.52.61-1.99,1.07-.46.46-.7,1-.7,1.62s.23,1.14.7,1.6c.47.46,1.13.81,1.99,1.06.86.25,1.86.37,3,.37s2.14-.12,3-.37c.85-.25,1.51-.6,1.97-1.06.46-.46.69-.99.69-1.6s-.23-1.16-.69-1.62c-.46-.46-1.12-.82-1.97-1.07-.86-.25-1.85-.38-3-.37-1.14,0-2.14.11-3,.37ZM609.64,8.7h-1.57v-3.92h1.57v3.92Z"/>
      <path class="cls-1" d="M641.61,18.21h-20.5v-1.36h20.5v1.36ZM638.91,10.49h-13.53v3.28h-1.57v-4.52h13.51v-2.74h-13.6v-1.32h15.2v5.31ZM639.42,14.57h-15.62v-1.29h15.62v1.29ZM625.47,25.29h-1.61v-5.17h1.61v5.17ZM639.4,26.2h-15.54v-1.36h15.54v1.36Z"/>
      <path class="cls-1" d="M670.4,20.2h-20.52v-1.35h20.52v1.35ZM669.07,8.33h-18.09v-1.36h18.09v1.36ZM663.94,10.17c1.07.29,1.9.71,2.47,1.26.57.55.86,1.23.86,2.03s-.29,1.43-.86,1.98c-.57.55-1.39.97-2.47,1.26-1.08.29-2.36.44-3.86.45-1.5,0-2.79-.16-3.86-.45-1.08-.29-1.9-.71-2.46-1.26-.57-.55-.85-1.21-.85-1.98s.28-1.47.85-2.03c.57-.55,1.39-.97,2.46-1.26,1.07-.29,2.36-.43,3.86-.43s2.78.14,3.86.43ZM657.12,11.29c-.83.2-1.46.48-1.9.85-.44.37-.66.81-.66,1.31s.22.92.66,1.29c.44.37,1.08.65,1.9.84.83.19,1.82.3,2.96.3,1.13,0,2.12-.11,2.95-.3.83-.19,1.46-.48,1.91-.84.44-.37.67-.8.67-1.29s-.22-.95-.67-1.31c-.45-.37-1.08-.65-1.92-.85-.83-.2-1.81-.3-2.94-.3s-2.13.1-2.96.3ZM660.85,7.86h-1.56v-3.68h1.56v3.68ZM660.85,26.77h-1.56v-6.91h1.56v6.91Z"/>
      <path class="cls-1" d="M679.97,7.26c.72.62,1.28,1.51,1.68,2.67.4,1.16.6,2.51.6,4.06s-.2,2.88-.6,4.04c-.4,1.16-.96,2.05-1.68,2.69-.72.63-1.56.95-2.53.95s-1.79-.32-2.51-.95c-.73-.63-1.29-1.53-1.68-2.69-.39-1.16-.59-2.5-.59-4.04s.2-2.9.59-4.06c.39-1.16.96-2.05,1.68-2.67.73-.62,1.56-.93,2.51-.93s1.81.31,2.53.93ZM675.71,8.58c-.49.51-.87,1.23-1.13,2.16-.26.93-.39,2.01-.39,3.25s.13,2.29.39,3.22c.26.93.64,1.65,1.15,2.16.5.51,1.08.77,1.72.77s1.24-.26,1.73-.77c.49-.51.88-1.23,1.14-2.16.27-.93.4-2.01.4-3.22s-.13-2.32-.4-3.25c-.27-.93-.65-1.65-1.14-2.16-.5-.51-1.07-.77-1.73-.77s-1.24.26-1.73.77ZM686.05,14.57h-4.48v-1.36h4.48v1.36ZM687.02,25.57h-1.54V4.85h1.54v20.72ZM691.49,26.74h-1.56V4.33h1.56v22.41Z"/>
      <path class="cls-1" d="M701.55,14.17l-.29-1.45,7.82-.53v1.21l-7.53.77ZM710.24,12.8c-.52,1.79-1.43,3.47-2.72,5.05-1.29,1.58-3.03,2.97-5.22,4.15l-.98-1.18c2.01-1.08,3.61-2.32,4.81-3.74,1.2-1.42,2.04-2.94,2.54-4.57.5-1.63.75-3.36.75-5.2v-.24h1.6c0,2.03-.26,3.94-.79,5.73ZM710.13,8.42h-7.77v-1.35h7.77v1.35ZM715.18,25.58h-1.52V4.9h1.52v20.68ZM719.24,14.93h-4.58v-1.33h4.58v1.33ZM720.2,26.74h-1.56V4.33h1.56v22.41Z"/>
      <path class="cls-1" d="M743.98,18.57h-20.4v-1.35h20.4v1.35ZM733,11c-.87,1.06-1.98,1.95-3.32,2.65s-2.73,1.19-4.17,1.47l-.65-1.28c1.24-.2,2.48-.61,3.73-1.22s2.28-1.36,3.09-2.25c.81-.89,1.22-1.85,1.22-2.86v-1.05h1.41v1.05c0,1.27-.44,2.44-1.31,3.5ZM742,7.15h-16.48v-1.33h16.48v1.33ZM734.54,26.72h-1.56v-8.68h1.56v8.68ZM735.88,10.37c.82.89,1.85,1.64,3.1,2.25s2.49,1.02,3.73,1.22l-.62,1.28c-1.45-.28-2.84-.77-4.19-1.46s-2.45-1.58-3.32-2.65c-.87-1.07-1.3-2.24-1.3-3.51v-1.05h1.38v1.05c0,1.02.41,1.97,1.22,2.86Z"/>
      <path class="cls-1" d="M751.59,15.33c-.45,1.42-1.09,2.69-1.9,3.81-.81,1.12-1.74,2-2.79,2.63l-1.05-1.21c.99-.58,1.88-1.37,2.66-2.39.78-1.02,1.39-2.15,1.83-3.41.44-1.26.65-2.52.65-3.78v-4.49h1.28v4.49c0,1.47-.23,2.92-.68,4.34ZM753.15,14.49c.42,1.19,1,2.28,1.75,3.26.75.98,1.6,1.75,2.56,2.31l-.95,1.23c-1.03-.62-1.94-1.48-2.73-2.58s-1.4-2.33-1.83-3.68c-.44-1.35-.65-2.72-.65-4.1v-4.43h1.24v4.43c0,1.18.21,2.36.62,3.55ZM759.53,13.91h-4.58v-1.4h4.58v1.4ZM760.55,25.57h-1.51V4.85h1.51v20.72ZM765.18,26.74h-1.56V4.33h1.56v22.41Z"/>
      <path class="cls-1" d="M789.04,23.77h-20.52v-1.37h20.52v1.37ZM782.93,6.56c1.23.47,2.18,1.13,2.87,1.99.69.86,1.03,1.86,1.03,2.99s-.34,2.1-1.03,2.96-1.64,1.52-2.87,1.99c-1.23.47-2.63.71-4.21.71s-2.96-.23-4.2-.71c-1.23-.47-2.19-1.13-2.88-1.99-.69-.85-1.04-1.84-1.04-2.96s.34-2.13,1.04-2.99c.69-.86,1.65-1.52,2.88-1.99,1.23-.47,2.63-.7,4.2-.7s2.99.24,4.21.7ZM775.33,7.72c-1,.36-1.78.88-2.35,1.54-.57.66-.85,1.42-.85,2.28s.29,1.6.86,2.26c.57.66,1.35,1.18,2.35,1.55s2.12.56,3.38.56,2.39-.19,3.39-.56c1-.37,1.78-.89,2.35-1.55.57-.66.85-1.41.85-2.26s-.28-1.61-.85-2.28c-.57-.67-1.35-1.18-2.35-1.54-1-.36-2.13-.54-3.39-.53-1.26,0-2.39.17-3.39.53ZM775.33,22.79h-1.56v-6.86h1.56v6.86ZM783.77,22.79h-1.61v-6.86h1.61v6.86Z"/>
      <path class="cls-1" d="M792.57,24.71c-.21-.13-.38-.29-.5-.5-.12-.21-.18-.43-.18-.67s.06-.47.18-.69c.12-.21.28-.38.5-.5.21-.12.44-.18.69-.18s.46.06.67.18.37.28.49.5c.12.21.18.44.18.69s-.06.46-.18.67c-.12.21-.28.38-.49.5-.21.13-.44.19-.67.19s-.46-.06-.67-.19ZM794.09,19.5h-1.7l-.13-13.13h1.96l-.13,13.13Z"/>
      <path class="cls-1" d="M5.13,60.44c-.35-.21-.63-.5-.84-.85-.21-.36-.32-.75-.32-1.17s.11-.81.32-1.17c.21-.36.49-.63.84-.84s.73-.3,1.14-.3c.43,0,.83.1,1.19.3.36.2.65.48.85.84s.3.75.3,1.17-.1.81-.3,1.17-.49.64-.85.85c-.37.21-.76.32-1.19.32-.41,0-.79-.11-1.14-.32Z"/>
      <path class="cls-1" d="M39.47,60.08h-20.5v-1.35h20.5v1.35ZM23.24,49.54h11.92v-3.28h1.6v9.57h-15.11v-9.57h1.59v3.28ZM35.16,54.53v-3.66h-11.92v3.66h11.92ZM29.95,67.74h-1.56v-8.44h1.56v8.44Z"/>
      <path class="cls-1" d="M49.39,57.17c2.44-.09,4.75-.3,6.93-.62l.12,1.24c-2.26.36-4.57.61-6.95.72-2.37.12-5.01.19-7.91.2l-.23-1.41c2.92,0,5.6-.05,8.04-.14ZM48.39,50.9c-.54.96-1.28,1.8-2.22,2.49-.94.7-2.01,1.23-3.2,1.58l-.75-1.23c1.07-.32,2.03-.78,2.88-1.37.86-.59,1.53-1.28,2.03-2.08.5-.8.75-1.62.75-2.49v-1.45h1.32v1.45c0,1.09-.27,2.12-.81,3.08ZM49.46,67.04h-1.61v-9.28h1.61v9.28ZM50.25,50.24c.5.75,1.18,1.4,2.05,1.94.87.55,1.84.96,2.93,1.23l-.78,1.23c-1.19-.32-2.27-.81-3.22-1.46-.95-.65-1.7-1.44-2.23-2.35-.54-.92-.81-1.92-.81-3v-1.45h1.31v1.45c0,.86.25,1.67.75,2.42ZM58.66,62.05h-5.84v-1.31h5.84v1.31ZM59.8,67.76h-1.62v-22.41h1.62v22.41Z"/>
      <path class="cls-1" d="M70.54,56.87c-.62,1.46-1.42,2.77-2.42,3.92-.99,1.15-2.05,2.01-3.17,2.6l-.98-1.27c1.02-.51,2.01-1.28,2.95-2.32.94-1.04,1.71-2.2,2.3-3.5.59-1.3.89-2.57.89-3.83v-4.06h1.35v4.06c0,1.47-.31,2.94-.93,4.41ZM77.27,49.04h-12.61v-1.36h12.61v1.36ZM72.6,56.16c.58,1.23,1.36,2.32,2.32,3.27.96.95,1.97,1.67,3.03,2.14l-.93,1.27c-1.16-.55-2.24-1.36-3.25-2.42-1.01-1.06-1.82-2.29-2.43-3.68-.62-1.39-.92-2.81-.92-4.28v-4.06h1.31v4.06c0,1.24.29,2.47.88,3.69ZM82.31,67.74h-1.61v-22.41h1.61v22.41Z"/>
      <path class="cls-1" d="M93.02,56.87c-.62,1.46-1.42,2.77-2.42,3.92-.99,1.15-2.05,2.01-3.17,2.6l-.98-1.27c1.02-.51,2.01-1.28,2.95-2.32.94-1.04,1.71-2.2,2.3-3.5.59-1.3.89-2.57.89-3.83v-4.06h1.35v4.06c0,1.47-.31,2.94-.93,4.41ZM99.74,49.04h-12.61v-1.36h12.61v1.36ZM95.07,56.16c.58,1.23,1.36,2.32,2.32,3.27.96.95,1.97,1.67,3.03,2.14l-.93,1.27c-1.16-.55-2.24-1.36-3.25-2.42-1.01-1.06-1.82-2.29-2.43-3.68-.62-1.39-.92-2.81-.92-4.28v-4.06h1.31v4.06c0,1.24.29,2.47.88,3.69ZM104.79,67.74h-1.61v-22.41h1.61v22.41Z"/>
      <path class="cls-1" d="M124.39,47.33c.87.44,1.55,1.05,2.05,1.83.5.78.74,1.67.74,2.67s-.25,1.88-.74,2.66c-.49.78-1.18,1.39-2.05,1.83s-1.86.66-2.96.68c-1.1-.02-2.09-.24-2.96-.68-.87-.44-1.56-1.04-2.06-1.83-.5-.78-.75-1.67-.75-2.66s.25-1.89.75-2.67c.5-.78,1.18-1.39,2.06-1.83s1.86-.65,2.96-.65,2.09.22,2.96.65ZM119.3,48.54c-.64.33-1.14.79-1.5,1.36-.36.57-.54,1.22-.54,1.94s.18,1.36.54,1.94c.37.58.87,1.04,1.5,1.38.64.34,1.35.51,2.13.51s1.51-.17,2.15-.5c.63-.33,1.13-.79,1.5-1.38.36-.58.54-1.23.54-1.94s-.18-1.36-.54-1.94c-.37-.57-.86-1.02-1.5-1.36-.63-.33-1.35-.5-2.15-.5s-1.49.17-2.13.5ZM119.22,66.33h-1.55v-7.25h1.55v7.25ZM121.38,65.6c.96-.12,1.88-.32,2.78-.62l.27,1.32c-1,.32-1.99.54-2.97.65-.98.12-1.91.17-2.78.17h-1v-1.33h1c.85-.02,1.75-.08,2.7-.2ZM134.96,60.5h-11.34v-1.28h11.34v1.28ZM131.44,61.72c.62.26,1.11.63,1.47,1.11.36.48.53,1.03.53,1.67s-.18,1.2-.53,1.68-.84.84-1.47,1.1c-.62.26-1.33.39-2.14.39s-1.53-.13-2.15-.39c-.62-.26-1.1-.62-1.45-1.1-.34-.47-.51-1.03-.51-1.68s.17-1.19.51-1.67c.34-.48.83-.85,1.45-1.11.62-.26,1.34-.39,2.15-.39s1.52.13,2.14.39ZM127.93,62.78c-.41.16-.72.4-.96.7-.23.3-.35.64-.35,1.02s.12.72.35,1.03c.23.3.55.54.96.71.41.16.86.25,1.37.25s.98-.08,1.38-.25c.41-.17.72-.4.95-.71s.34-.65.34-1.03-.11-.71-.34-1.02-.54-.54-.95-.7c-.41-.17-.87-.25-1.38-.25s-.96.08-1.37.25ZM130.11,60.23h-1.57v-3.15h1.57v3.15ZM132.59,56.56h-1.59v-11.24h1.59v11.24ZM136.07,51.85h-4.21v-1.33h4.21v1.33Z"/>
      <path class="cls-1" d="M146.35,53.82c-.61,1.78-1.55,3.43-2.83,4.97-1.27,1.54-2.88,2.88-4.82,4.04l-.96-1.19c1.76-1.05,3.23-2.26,4.42-3.63s2.08-2.86,2.66-4.47.88-3.28.88-5.03v-.25h1.56c0,1.93-.3,3.78-.91,5.56ZM146.39,49.61h-7.77v-1.35h7.77v1.35ZM151.06,56.03h-6.03v-1.33h6.03v1.33ZM152.04,66.54h-1.55v-20.59h1.55v20.59ZM156.72,67.74h-1.54v-22.41h1.54v22.41Z"/>
      <path class="cls-1" d="M172.62,51.79c-.54,1.17-1.28,2.17-2.23,3.02-.95.85-2.04,1.5-3.26,1.97l-.81-1.31c1.1-.39,2.09-.95,2.98-1.68.88-.73,1.57-1.6,2.07-2.6.5-1,.74-2.06.74-3.19v-1.9h1.32v1.9c0,1.35-.27,2.62-.8,3.78ZM183.81,63.28h-12.49v3.62h-1.56v-4.88h12.47v-2.54h-12.52v-1.32h14.1v5.12ZM184.7,67.44h-14.94v-1.33h14.94v1.33ZM174.42,50.88c.5.91,1.18,1.7,2.04,2.37s1.83,1.19,2.91,1.55l-.88,1.24c-1.18-.42-2.23-1.02-3.15-1.8-.93-.78-1.65-1.7-2.18-2.77-.53-1.07-.79-2.22-.79-3.46v-1.9h1.29v1.9c0,1.01.25,1.96.75,2.87ZM183.81,57.11h-1.59v-11.78h1.59v11.78ZM187.29,51.78h-4.23v-1.37h4.23v1.37Z"/>
      <path class="cls-1" d="M195.09,51.79c-.54,1.17-1.28,2.17-2.23,3.02-.95.85-2.04,1.5-3.26,1.97l-.81-1.31c1.1-.39,2.09-.95,2.98-1.68.88-.73,1.57-1.6,2.07-2.6.5-1,.74-2.06.74-3.19v-1.9h1.32v1.9c0,1.35-.27,2.62-.8,3.78ZM206.28,63.28h-12.49v3.62h-1.56v-4.88h12.47v-2.54h-12.52v-1.32h14.1v5.12ZM207.17,67.44h-14.94v-1.33h14.94v1.33ZM196.89,50.88c.5.91,1.18,1.7,2.04,2.37s1.83,1.19,2.91,1.55l-.88,1.24c-1.18-.42-2.23-1.02-3.15-1.8-.93-.78-1.65-1.7-2.18-2.77-.53-1.07-.79-2.22-.79-3.46v-1.9h1.29v1.9c0,1.01.25,1.96.75,2.87ZM206.28,57.11h-1.59v-11.78h1.59v11.78ZM209.76,51.78h-4.23v-1.37h4.23v1.37Z"/>
      <path class="cls-1" d="M228.93,48.12h-8.62v8.59h-1.59v-9.98h10.21v1.38ZM226.22,55.87c1.43-.08,2.85-.26,4.27-.53l.19,1.33c-1.48.26-2.95.44-4.39.52s-3.42.12-5.92.1h-1.65v-1.32h1.65c2.47.02,4.42-.02,5.85-.1ZM228.54,52.63h-8.76v-1.36h8.76v1.36ZM235.04,67.41h-13.98v-7.62h13.98v7.62ZM222.62,66.07h10.82v-4.98h-10.82v4.98ZM235.04,58.56h-1.59v-13.23h1.59v13.23ZM238.52,52.39h-3.92v-1.38h3.92v1.38Z"/>
      <path class="cls-1" d="M245.71,53.07c-.45,1.07-1.06,2.04-1.85,2.9s-1.71,1.53-2.75,1.99l-.9-1.24c.94-.42,1.78-1.01,2.53-1.76.74-.75,1.32-1.58,1.73-2.47.41-.89.62-1.77.62-2.62v-3.14h1.29v3.14c0,1.07-.22,2.13-.67,3.21ZM259.03,67.74h-1.56v-6.21h-13.42v-1.35h14.98v7.55ZM247.19,52.38c.39.83.94,1.58,1.66,2.24.72.66,1.54,1.17,2.47,1.54l-.85,1.26c-1.04-.43-1.95-1.03-2.72-1.81-.78-.77-1.37-1.66-1.79-2.65-.42-1-.63-2.03-.63-3.09v-3.14h1.28v3.14c0,.85.2,1.69.58,2.52ZM254.16,58.75h-1.52v-12.99h1.52v12.99ZM258.02,52.69h-4.53v-1.37h4.53v1.37ZM259.03,58.88h-1.54v-13.52h1.54v13.52Z"/>
      <path class="cls-1" d="M289.35,61.2h-20.52v-1.35h20.52v1.35ZM288.02,49.33h-18.09v-1.36h18.09v1.36ZM282.89,51.17c1.08.29,1.9.71,2.47,1.26.57.55.86,1.23.86,2.03s-.29,1.43-.86,1.98c-.57.55-1.39.97-2.47,1.26-1.07.29-2.36.44-3.86.45-1.5,0-2.78-.16-3.86-.45-1.07-.29-1.89-.71-2.46-1.26-.57-.55-.85-1.21-.85-1.98s.28-1.47.85-2.03c.57-.55,1.39-.97,2.46-1.26,1.08-.29,2.36-.43,3.86-.43s2.79.14,3.86.43ZM276.07,52.29c-.83.2-1.46.48-1.9.85-.44.37-.66.81-.66,1.31s.22.92.66,1.29c.44.37,1.07.65,1.9.84.83.19,1.81.3,2.96.3,1.13,0,2.12-.11,2.95-.3.83-.19,1.47-.48,1.91-.84.44-.37.67-.8.67-1.29s-.22-.95-.67-1.31c-.45-.37-1.08-.65-1.92-.85-.83-.2-1.81-.3-2.94-.3s-2.13.1-2.96.3ZM279.8,48.86h-1.56v-3.68h1.56v3.68ZM279.8,67.77h-1.56v-6.91h1.56v6.91Z"/>
      <path class="cls-1" d="M311.03,49.56h-13.37v-1.33h13.37v1.33ZM307.13,51.44c.81.34,1.44.82,1.88,1.44.45.62.67,1.35.67,2.19s-.22,1.54-.67,2.15c-.45.61-1.08,1.09-1.88,1.43s-1.74.51-2.79.51-1.99-.17-2.81-.51c-.82-.34-1.44-.81-1.88-1.43-.44-.61-.66-1.33-.66-2.15s.22-1.57.66-2.19c.44-.62,1.07-1.1,1.88-1.44.82-.34,1.76-.51,2.81-.51s1.98.17,2.79.51ZM302.33,52.57c-.59.23-1.04.57-1.35,1-.31.44-.47.93-.47,1.49s.16,1.04.47,1.46c.31.42.76.75,1.35.98.59.23,1.26.35,2.01.35s1.42-.12,2-.35c.58-.23,1.03-.56,1.35-.98.32-.42.48-.91.48-1.46s-.16-1.06-.48-1.49c-.32-.44-.77-.77-1.35-1-.58-.23-1.25-.35-2-.35s-1.42.12-2.01.35ZM302.73,66.39h-1.56v-5.6h1.56v5.6ZM316.12,67.2h-14.96v-1.36h14.96v1.36ZM305.14,48.93h-1.6v-3.58h1.6v3.58ZM315.02,62.15h-1.59v-16.8h1.59v16.8ZM318.5,54.27h-4.01v-1.37h4.01v1.37Z"/>
      <path class="cls-1" d="M326.34,53.06c-.37,1.71-.95,3.38-1.75,5-.8,1.62-1.87,3.12-3.19,4.49l-1.31-.93c1.23-1.24,2.25-2.61,3.04-4.1.79-1.49,1.37-3.03,1.73-4.63.36-1.6.54-3.23.54-4.9v-.19h1.47c0,1.79-.18,3.55-.54,5.26ZM325.96,49.18h-5.26v-1.37h5.26v1.37ZM332.54,53.44c-.29,1.84-.81,3.69-1.57,5.54s-1.8,3.54-3.13,5.08l-1.33-.89c1.25-1.4,2.25-2.96,3-4.68.75-1.73,1.26-3.47,1.55-5.23.29-1.76.43-3.53.43-5.31v-.14h1.49c0,1.91-.14,3.79-.43,5.64ZM332.12,49.18h-4.58v-1.37h4.58v1.37ZM337.52,55.62h-6.04v-1.35h6.04v1.35ZM338.44,67.74h-1.56v-22.41h1.56v22.41Z"/>
      <path class="cls-1" d="M345.31,50.99h6.83v-4.15h1.56v11.17h-9.99v-11.17h1.6v4.15ZM352.14,56.67v-4.38h-6.83v4.38h6.83ZM348.26,66.44h-1.61v-6.13h1.61v6.13ZM361.52,67.2h-14.88v-1.36h14.88v1.36ZM359.92,53.15h-6.71v-1.38h6.71v1.38ZM360.99,61.95h-1.61v-16.59h1.61v16.59Z"/>
      <path class="cls-1" d="M372.62,48.26c.72.62,1.28,1.51,1.68,2.67.4,1.16.6,2.51.6,4.06s-.2,2.88-.6,4.04c-.4,1.16-.96,2.05-1.68,2.69-.72.63-1.56.95-2.53.95s-1.79-.32-2.51-.95c-.73-.63-1.29-1.53-1.68-2.69-.39-1.16-.59-2.5-.59-4.04s.2-2.9.59-4.06c.39-1.16.96-2.05,1.68-2.67.73-.62,1.56-.93,2.51-.93s1.81.31,2.53.93ZM368.36,49.58c-.49.51-.87,1.23-1.13,2.16-.26.93-.39,2.01-.39,3.25s.13,2.29.39,3.22c.26.93.64,1.65,1.15,2.16.5.51,1.08.77,1.72.77s1.24-.26,1.73-.77c.49-.51.88-1.23,1.14-2.16.27-.93.4-2.01.4-3.22s-.13-2.32-.4-3.25c-.27-.93-.65-1.65-1.14-2.16-.5-.51-1.07-.77-1.73-.77s-1.24.26-1.73.77ZM378.7,55.57h-4.48v-1.36h4.48v1.36ZM379.66,66.57h-1.54v-20.72h1.54v20.72ZM384.13,67.74h-1.56v-22.41h1.56v22.41Z"/>
      <path class="cls-1" d="M414.16,57.97h-20.4v-1.32h20.4v1.32ZM412.18,47.54h-16.48v-1.36h16.48v1.36ZM412.12,54.15h-16.38v-1.31h16.38v1.31ZM411.62,67.74h-1.61v-5.41h-13.98v-1.35h15.59v6.75ZM400.92,53.59h-1.59v-6.73h1.59v6.73ZM404.72,61.38h-1.56v-4.08h1.56v4.08ZM408.56,53.59h-1.59v-6.73h1.59v6.73Z"/>
      <path class="cls-1" d="M417.8,65.71c-.21-.13-.38-.29-.5-.5-.12-.21-.18-.43-.18-.67s.06-.47.18-.69c.12-.21.28-.38.5-.5.21-.12.44-.18.69-.18s.46.06.67.18.37.28.49.5c.12.21.18.44.18.69s-.06.46-.18.67c-.12.21-.28.38-.49.5-.21.13-.44.19-.67.19s-.46-.06-.67-.19ZM419.32,60.5h-1.7l-.13-13.13h1.96l-.13,13.13Z"/>
      <path class="cls-1" d="M435.24,49.01h-3.9v12.2h-1.57v-13.55h5.47v1.35ZM432.97,60.43c.77-.06,1.58-.2,2.43-.4l.23,1.37c-.91.19-1.75.33-2.53.39s-1.59.1-2.43.1h-.89v-1.38h.89c.77,0,1.54-.02,2.31-.08ZM442.64,49.01h-4.49v12.23h-1.61v-13.57h6.11v1.35ZM440.86,60.41c.92-.08,1.85-.23,2.8-.47l.19,1.36c-1.02.25-1.99.41-2.91.48-.93.08-2.03.11-3.31.11h-1.09v-1.38h1.09c1.23,0,2.31-.03,3.23-.1ZM446.73,55.02h-5.27v-1.33h5.27v1.33ZM447.71,67.74h-1.61v-22.41h1.61v22.41Z"/>
      <path class="cls-1" d="M458.01,56.21c-.57,1.5-1.34,2.84-2.3,4.01-.96,1.17-2,2.07-3.12,2.69l-1.04-1.28c1.04-.53,2.02-1.33,2.95-2.38.92-1.05,1.66-2.25,2.21-3.59.55-1.34.83-2.67.83-3.99v-4.33h1.33v4.33c0,1.53-.29,3.05-.86,4.55ZM460.01,55.52c.56,1.28,1.3,2.42,2.22,3.42.92,1,1.9,1.75,2.94,2.25l-.96,1.32c-1.14-.6-2.2-1.46-3.16-2.59s-1.74-2.41-2.32-3.85c-.58-1.44-.87-2.91-.87-4.4v-4.33h1.31v4.33c0,1.29.28,2.58.84,3.86ZM469.14,54.5h-6.41v-1.32h6.41v1.32ZM469.93,67.77h-1.57v-22.45h1.57v22.45Z"/>
      <path class="cls-1" d="M487.24,57.14c-.58,1.41-1.35,2.66-2.33,3.73-.98,1.07-2.05,1.89-3.21,2.47l-.91-1.24c1.08-.5,2.08-1.23,3-2.2s1.64-2.07,2.18-3.33c.54-1.25.81-2.54.81-3.86v-2.25h1.32v2.25c0,1.54-.29,3.02-.86,4.43ZM493.73,50.64h-12.38v-1.32h12.38v1.32ZM488.35,50.09h-1.59v-4.38h1.59v4.38ZM489.19,56.41c.56,1.2,1.31,2.26,2.25,3.17.94.91,1.95,1.61,3.03,2.09l-.93,1.26c-1.17-.54-2.25-1.33-3.24-2.35-.99-1.03-1.78-2.22-2.37-3.59-.59-1.36-.89-2.79-.89-4.28v-2.25h1.31v2.25c0,1.27.28,2.5.84,3.71ZM498.62,67.74h-1.61v-22.41h1.61v22.41Z"/>
      <path class="cls-1" d="M523.18,59.65h-20.5v-1.37h20.5v1.37ZM516.98,46.87c1.18.39,2.09.95,2.74,1.7.64.74.96,1.61.96,2.61s-.32,1.82-.96,2.55c-.64.72-1.55,1.29-2.74,1.69-1.18.4-2.54.6-4.09.59-1.55,0-2.91-.19-4.09-.59-1.18-.4-2.1-.96-2.74-1.69-.65-.72-.97-1.57-.97-2.55s.32-1.87.97-2.61c.65-.74,1.56-1.31,2.74-1.7,1.18-.39,2.54-.58,4.09-.58s2.91.19,4.09.58ZM509.68,48.04c-.93.29-1.65.71-2.17,1.25-.52.54-.78,1.17-.78,1.88s.26,1.31.78,1.84c.52.53,1.24.95,2.17,1.24.93.3,2,.44,3.21.44s2.28-.15,3.22-.44c.93-.3,1.66-.71,2.18-1.24.52-.53.78-1.15.78-1.84s-.26-1.34-.78-1.88c-.52-.54-1.24-.96-2.18-1.25-.94-.29-2.01-.44-3.22-.44s-2.28.15-3.21.44ZM513.66,67.72h-1.56v-8.67h1.56v8.67Z"/>
      <path class="cls-1" d="M545.65,58.25h-20.5v-1.35h20.5v1.35ZM529.49,66.2h-1.59v-5.52h1.59v5.52ZM543.39,67.17h-15.49v-1.36h15.49v1.36ZM529.61,53.01h-1.59v-6.86h1.59v6.86ZM543.27,53.66h-15.25v-1.32h15.25v1.32Z"/>
      <path class="cls-1" d="M556.37,53.82c-.61,1.78-1.55,3.43-2.82,4.97-1.27,1.54-2.88,2.88-4.82,4.04l-.96-1.19c1.76-1.05,3.24-2.26,4.43-3.63,1.19-1.37,2.07-2.86,2.66-4.47s.88-3.28.88-5.03v-.25h1.56c0,1.93-.3,3.78-.91,5.56ZM556.41,49.61h-7.77v-1.35h7.77v1.35ZM561.08,56.03h-6.03v-1.33h6.03v1.33ZM562.06,66.54h-1.55v-20.59h1.55v20.59ZM566.74,67.74h-1.54v-22.41h1.54v22.41Z"/>
      <path class="cls-1" d="M596.92,64.85h-20.52v-1.38h20.52v1.38ZM594.88,48.96h-16.59v-1.36h16.59v1.36ZM594.84,57.94h-16.53v-1.29h16.53v1.29ZM583.56,56.95h-1.59v-8.32h1.59v8.32ZM587.35,64.09h-1.56v-6.73h1.56v6.73ZM591.18,56.95h-1.56v-8.32h1.56v8.32Z"/>
      <path class="cls-1" d="M608.22,47.65c.88.45,1.57,1.1,2.07,1.93.49.83.74,1.77.74,2.82s-.25,2.01-.74,2.84c-.5.82-1.19,1.47-2.07,1.93-.88.46-1.88.69-2.98.69s-2.09-.23-2.97-.69c-.88-.46-1.57-1.11-2.07-1.93-.5-.83-.75-1.77-.75-2.84s.25-1.99.75-2.82c.5-.83,1.19-1.48,2.07-1.93.88-.45,1.87-.68,2.97-.68s2.09.23,2.98.68ZM603.08,48.9c-.65.35-1.15.83-1.51,1.44-.36.61-.54,1.3-.54,2.06s.18,1.45.54,2.08c.36.62.86,1.11,1.51,1.45.65.35,1.37.52,2.16.52s1.52-.17,2.16-.52c.64-.35,1.15-.83,1.52-1.45.37-.62.55-1.31.55-2.08s-.19-1.45-.55-2.06c-.37-.61-.87-1.09-1.52-1.44-.64-.35-1.36-.52-2.16-.52s-1.52.17-2.16.52ZM604.57,66.24h-1.59v-6.12h1.59v6.12ZM618.02,67.2h-15.03v-1.36h15.03v1.36ZM617.29,61.81h-1.6v-16.45h1.6v16.45Z"/>
      <path class="cls-1" d="M641.86,64.71h-20.52v-1.36h20.52v1.36ZM639.17,48.73h-13.48v9.31h-1.62v-10.68h15.11v1.37ZM639.44,58.95h-15.38v-1.35h15.38v1.35ZM638.7,53.68h-13.53v-1.32h13.53v1.32Z"/>
      <path class="cls-1" d="M650.86,58.05l-7.05-5.1h8.7l2.68-8.26,2.72,8.26h8.7l-7.03,5.1,2.7,8.3-7.08-5.13-7.03,5.13,2.71-8.3Z"/>
      <path class="cls-1" d="M5.13,101.44c-.35-.21-.63-.5-.84-.85-.21-.36-.32-.75-.32-1.17s.11-.81.32-1.17c.21-.36.49-.63.84-.84s.73-.3,1.14-.3c.43,0,.83.1,1.19.3.36.2.65.48.85.84s.3.75.3,1.17-.1.81-.3,1.17-.49.64-.85.85c-.37.21-.76.32-1.19.32-.41,0-.79-.11-1.14-.32Z"/>
      <path class="cls-1" d="M39.47,101.08h-20.5v-1.35h20.5v1.35ZM23.24,90.54h11.92v-3.28h1.6v9.57h-15.11v-9.57h1.59v3.28ZM35.16,95.53v-3.66h-11.92v3.66h11.92ZM29.95,108.74h-1.56v-8.44h1.56v8.44Z"/>
      <path class="cls-1" d="M61.98,105.59h-20.52v-1.35h20.52v1.35ZM50.82,94.01c-.9,1.31-2.04,2.41-3.42,3.31-1.38.89-2.78,1.52-4.21,1.87l-.75-1.36c1.24-.26,2.5-.78,3.8-1.56s2.38-1.74,3.24-2.89c.86-1.15,1.29-2.36,1.29-3.63v-1.76h1.41v1.76c0,1.53-.45,2.95-1.36,4.27ZM53.74,93.36c.88,1.16,1.97,2.13,3.28,2.92,1.31.79,2.57,1.3,3.78,1.55l-.76,1.36c-1.41-.36-2.8-.98-4.18-1.87-1.38-.89-2.53-1.99-3.44-3.31s-1.37-2.74-1.37-4.27v-1.76h1.37v1.76c0,1.25.44,2.46,1.31,3.62Z"/>
      <path class="cls-1" d="M74.79,96.13h-8.39v6.23h-1.59v-7.59h8.43v-4.94h-8.51v-1.35h10.05v7.64ZM72.1,101.77c1.52-.11,3.07-.31,4.65-.6l.13,1.37c-1.61.3-3.19.5-4.73.6-1.54.11-3.44.17-5.67.18h-1.68v-1.4h1.68c2.23,0,4.1-.05,5.62-.16ZM81.23,96.5h-5.05v-1.37h5.05v1.37ZM82.37,108.77h-1.59v-22.45h1.59v22.45Z"/>
      <path class="cls-1" d="M97.08,94.92c-.75,1.92-1.92,3.69-3.49,5.31s-3.56,3-5.96,4.16l-.89-1.32c2.18-1.03,4-2.26,5.46-3.69,1.46-1.43,2.57-3.01,3.31-4.76.74-1.75,1.12-3.62,1.12-5.6v-.23h1.57c0,2.17-.38,4.21-1.13,6.13ZM97.23,90.12h-9.5v-1.33h9.5v1.33ZM104.82,108.74h-1.6v-22.41h1.6v22.41Z"/>
      <path class="cls-1" d="M119.27,94.85c-.73,1.92-1.86,3.69-3.4,5.31-1.54,1.62-3.49,3.02-5.84,4.18l-.89-1.27c2.11-1.05,3.88-2.29,5.31-3.73s2.52-3.02,3.24-4.76c.73-1.74,1.09-3.6,1.09-5.57v-.24h1.57c0,2.13-.36,4.16-1.09,6.07ZM119.61,90.15h-9.5v-1.37h9.5v1.37ZM126.11,108.74h-1.61v-22.41h1.61v22.41ZM129.88,96.98h-4.2v-1.36h4.2v1.36Z"/>
      <path class="cls-1" d="M143.26,94.06c-.45,1.06-1.07,2.01-1.87,2.86-.8.85-1.72,1.5-2.74,1.95l-.89-1.24c.94-.41,1.78-.98,2.53-1.71.74-.74,1.32-1.54,1.73-2.42.41-.88.62-1.73.62-2.57v-3.17h1.29v3.17c0,1.03-.22,2.08-.67,3.14ZM153.24,101.25c1.12.31,1.98.76,2.58,1.35.6.59.9,1.3.9,2.13s-.3,1.51-.9,2.1c-.6.59-1.46,1.04-2.58,1.35s-2.45.47-3.99.47-2.86-.16-3.98-.47-1.98-.76-2.56-1.35c-.59-.59-.88-1.29-.88-2.1s.29-1.54.88-2.13,1.44-1.04,2.56-1.35c1.12-.31,2.45-.46,3.98-.46s2.87.15,3.99.46ZM144.75,93.38c.4.81.96,1.53,1.68,2.18.72.64,1.54,1.14,2.46,1.49l-.85,1.24c-1.03-.42-1.94-1-2.73-1.76-.79-.76-1.39-1.62-1.81-2.6-.42-.97-.63-1.98-.63-3.01v-3.17h1.28v3.17c0,.83.2,1.65.6,2.46ZM146.15,102.36c-.89.21-1.57.52-2.04.93-.47.41-.71.89-.71,1.45s.24,1.01.71,1.42c.47.4,1.15.71,2.03.92.88.21,1.92.32,3.11.32s2.24-.11,3.12-.32c.88-.21,1.56-.52,2.04-.92.48-.4.72-.87.72-1.42s-.24-1.04-.72-1.45-1.17-.71-2.05-.93-1.92-.32-3.1-.32-2.21.11-3.1.32ZM151.71,99.52h-1.52v-12.73h1.52v12.73ZM155.6,93.9h-4.51v-1.35h4.51v1.35ZM156.58,100.23h-1.54v-13.88h1.54v13.88Z"/>
      <path class="cls-1" d="M170.41,92.81c-.86,1.5-2.09,2.8-3.68,3.88-1.59,1.09-3.48,1.94-5.66,2.54l-.65-1.28c1.96-.56,3.65-1.3,5.1-2.22,1.44-.92,2.56-2,3.34-3.24s1.17-2.58,1.17-4.02v-.63h1.68c0,1.81-.43,3.47-1.29,4.97ZM166.64,104.34c-.42.9-1.02,1.72-1.8,2.44-.78.73-1.67,1.29-2.69,1.69l-.84-1.23c.91-.34,1.71-.81,2.41-1.43.7-.61,1.26-1.29,1.66-2.03.4-.74.6-1.47.6-2.18v-1.84h1.28v1.84c0,.92-.21,1.83-.63,2.74ZM171.14,89.19h-9.48v-1.35h9.48v1.35ZM168.01,103.89c.32.76.79,1.45,1.42,2.08.62.63,1.37,1.11,2.23,1.46l-.71,1.23c-1.01-.4-1.86-.96-2.56-1.7-.7-.74-1.23-1.57-1.57-2.51-.35-.93-.52-1.88-.52-2.85v-1.84h1.23v1.84c0,.77.16,1.53.48,2.29ZM175.07,104.25c-.35.92-.88,1.78-1.58,2.57-.7.79-1.55,1.4-2.54,1.83l-.71-1.23c.85-.4,1.6-.93,2.23-1.59.63-.67,1.11-1.37,1.43-2.12.32-.75.48-1.45.48-2.11v-1.84h1.22v1.84c0,.85-.18,1.73-.53,2.65ZM177.13,96.31h-6.42v-1.38h6.42v1.38ZM177.25,91.65h-6.35v-1.35h6.35v1.35ZM176.5,103.86c.38.75.93,1.41,1.64,2.01s1.54,1.05,2.47,1.37l-.82,1.23c-1.05-.39-1.96-.94-2.73-1.64-.77-.71-1.36-1.51-1.78-2.42-.41-.91-.62-1.84-.62-2.81v-1.84h1.27v1.84c0,.76.19,1.51.57,2.26ZM178.56,99.21h-1.61v-12.86h1.61v12.86Z"/>
      <path class="cls-1" d="M194.02,89.9h-8.86v12.42h-1.59v-13.76h10.45v1.35ZM191.02,101.55c1.6-.12,3.21-.33,4.86-.65l.22,1.41c-1.68.3-3.31.51-4.91.62s-3.56.16-5.88.15h-1.73v-1.37h1.73c2.22,0,4.12-.05,5.72-.17ZM199.81,108.77h-1.61v-22.45h1.61v22.45ZM203.68,96.75h-4.27v-1.38h4.27v1.38Z"/>
      <path class="cls-1" d="M216.29,98.64h-10.16v-10.31h10.16v10.31ZM207.72,97.34h7.01v-7.66h-7.01v7.66ZM210.77,107.39h-1.61v-6.12h1.61v6.12ZM224.03,108.2h-14.88v-1.36h14.88v1.36ZM222.41,91.8h-6.55v-1.37h6.55v1.37ZM222.43,96.59h-6.58v-1.37h6.58v1.37ZM223.5,102.72h-1.61v-16.36h1.61v16.36Z"/>
      <path class="cls-1" d="M254.29,98.82h-20.49v-1.36h20.49v1.36ZM236.13,93.91l-.22-1.4,14.5-.48v1.21l-14.28.67ZM251.06,88.94h-14.64v-1.36h14.64v1.36ZM238.07,107.14h-1.61v-5.88h1.61v5.88ZM252.05,108.2h-15.59v-1.36h15.59v1.36ZM251.49,92.1c-.03.77-.09,1.65-.19,2.65s-.27,2.08-.51,3.24l-1.59-.19c.24-1.11.41-2.15.51-3.14s.16-1.84.19-2.59.04-1.62.04-2.64v-1.84h1.59v1.84c0,1.02-.01,1.91-.04,2.67Z"/>
      <path class="cls-1" d="M283.03,101.08h-20.5v-1.35h20.5v1.35ZM266.8,90.54h11.92v-3.28h1.6v9.57h-15.11v-9.57h1.59v3.28ZM278.72,95.53v-3.66h-11.92v3.66h11.92ZM273.51,108.74h-1.56v-8.44h1.56v8.44Z"/>
      <path class="cls-1" d="M305.54,105.59h-20.52v-1.35h20.52v1.35ZM294.38,94.01c-.91,1.31-2.05,2.41-3.42,3.31-1.38.89-2.78,1.52-4.21,1.87l-.75-1.36c1.23-.26,2.5-.78,3.8-1.56,1.3-.78,2.38-1.74,3.24-2.89s1.29-2.36,1.29-3.63v-1.76h1.41v1.76c0,1.53-.45,2.95-1.36,4.27ZM297.3,93.36c.88,1.16,1.97,2.13,3.28,2.92,1.31.79,2.57,1.3,3.78,1.55l-.76,1.36c-1.4-.36-2.8-.98-4.18-1.87-1.38-.89-2.53-1.99-3.44-3.31s-1.37-2.74-1.37-4.27v-1.76h1.37v1.76c0,1.25.44,2.46,1.31,3.62Z"/>
      <path class="cls-1" d="M318.35,96.13h-8.39v6.23h-1.59v-7.59h8.43v-4.94h-8.51v-1.35h10.05v7.64ZM315.66,101.77c1.52-.11,3.07-.31,4.65-.6l.13,1.37c-1.61.3-3.18.5-4.73.6-1.54.11-3.43.17-5.67.18h-1.68v-1.4h1.68c2.22,0,4.1-.05,5.62-.16ZM324.79,96.5h-5.05v-1.37h5.05v1.37ZM325.92,108.77h-1.59v-22.45h1.59v22.45Z"/>
      <path class="cls-1" d="M340.64,94.92c-.75,1.92-1.92,3.69-3.49,5.31s-3.56,3-5.95,4.16l-.89-1.32c2.17-1.03,3.99-2.26,5.46-3.69,1.46-1.43,2.57-3.01,3.31-4.76.75-1.75,1.12-3.62,1.12-5.6v-.23h1.57c0,2.17-.38,4.21-1.13,6.13ZM340.79,90.12h-9.5v-1.33h9.5v1.33ZM348.38,108.74h-1.6v-22.41h1.6v22.41Z"/>
      <path class="cls-1" d="M372.91,99.25h-20.5v-1.35h20.5v1.35ZM356.75,107.2h-1.59v-5.52h1.59v5.52ZM370.65,108.17h-15.49v-1.36h15.49v1.36ZM356.86,94.01h-1.59v-6.86h1.59v6.86ZM370.52,94.66h-15.25v-1.32h15.25v1.32Z"/>
      <path class="cls-1" d="M401.59,101.28h-20.4v-1.36h20.4v1.36ZM390.71,94.1c-.86,1.02-1.96,1.86-3.31,2.52-1.35.66-2.77,1.13-4.25,1.39l-.61-1.31c1.27-.19,2.53-.57,3.77-1.14s2.27-1.28,3.07-2.13c.8-.84,1.21-1.75,1.21-2.71v-.62h1.41v.62c0,1.24-.43,2.36-1.29,3.38ZM399.58,90.52h-16.36v-1.33h16.36v1.33ZM392.17,89.64h-1.57v-3.33h1.57v3.33ZM392.17,108.77h-1.57v-8.28h1.57v8.28ZM393.38,93.42c.8.85,1.82,1.56,3.07,2.14s2.5.96,3.77,1.14l-.61,1.31c-1.47-.25-2.88-.71-4.23-1.38-1.35-.68-2.45-1.53-3.3-2.54-.85-1.02-1.28-2.14-1.28-3.36v-.62h1.38v.62c0,.95.4,1.85,1.2,2.7Z"/>
      <path class="cls-1" d="M414.05,94.85c-.73,1.92-1.86,3.69-3.4,5.31-1.54,1.62-3.49,3.02-5.84,4.18l-.89-1.27c2.11-1.05,3.88-2.29,5.31-3.73s2.52-3.02,3.24-4.76c.73-1.74,1.09-3.6,1.09-5.57v-.24h1.57c0,2.13-.36,4.16-1.09,6.07ZM414.4,90.15h-9.5v-1.37h9.5v1.37ZM420.9,108.74h-1.61v-22.41h1.61v22.41ZM424.67,96.98h-4.2v-1.36h4.2v1.36Z"/>
      <path class="cls-1" d="M446.64,105.85h-20.52v-1.36h20.52v1.36ZM443.98,94.62h-13.62v4.76h-1.59v-6.09h13.63v-3.87h-13.71v-1.36h15.29v6.56ZM444.51,99.99h-15.74v-1.35h15.74v1.35ZM437.1,105.11h-1.56v-5.61h1.56v5.61Z"/>
      <path class="cls-1" d="M465.05,92.36c-.85,1.43-2.05,2.65-3.61,3.66-1.56,1.01-3.42,1.79-5.59,2.35l-.58-1.35c1.94-.49,3.61-1.16,5.02-2,1.41-.84,2.49-1.84,3.24-3,.75-1.16,1.13-2.43,1.13-3.83v-.69h1.66c0,1.8-.42,3.42-1.27,4.85ZM465.92,88.87h-9.52v-1.36h9.52v1.36ZM473.34,104.17h-12.75v3.9h-1.57v-5.14h12.72v-2.67h-12.78v-1.33h14.38v5.24ZM474.19,108.52h-15.17v-1.35h15.17v1.35ZM472.04,93.29h-5.57v-1.33h5.57v1.33ZM473.34,97.93h-1.61v-11.6h1.61v11.6Z"/>
      <path class="cls-1" d="M488.21,96.13h-8.39v6.23h-1.59v-7.59h8.43v-4.94h-8.51v-1.35h10.05v7.64ZM485.52,101.77c1.52-.11,3.07-.31,4.65-.6l.13,1.37c-1.61.3-3.18.5-4.73.6-1.54.11-3.43.17-5.67.18h-1.68v-1.4h1.68c2.22,0,4.1-.05,5.62-.16ZM494.66,96.5h-5.05v-1.37h5.05v1.37ZM495.79,108.77h-1.59v-22.45h1.59v22.45Z"/>
      <path class="cls-1" d="M506.36,97.21c-.57,1.5-1.34,2.84-2.3,4.01-.96,1.17-2,2.07-3.12,2.69l-1.04-1.28c1.04-.53,2.02-1.33,2.95-2.38.92-1.05,1.66-2.25,2.21-3.59.55-1.34.83-2.67.83-3.99v-4.33h1.33v4.33c0,1.53-.29,3.05-.86,4.55ZM508.35,96.52c.56,1.28,1.3,2.42,2.22,3.42.92,1,1.9,1.75,2.94,2.25l-.96,1.32c-1.14-.6-2.2-1.46-3.16-2.59s-1.74-2.41-2.32-3.85c-.58-1.44-.87-2.91-.87-4.4v-4.33h1.31v4.33c0,1.29.28,2.58.84,3.86ZM517.48,95.5h-6.41v-1.32h6.41v1.32ZM518.27,108.77h-1.57v-22.45h1.57v22.45Z"/>
      <path class="cls-1" d="M531.12,94.07h6.99v-5.98h1.57v14.89h-10.17v-14.89h1.6v5.98ZM538.11,101.63v-6.25h-6.99v6.25h6.99ZM545.92,96.16h-6.74v-1.35h6.74v1.35ZM547.03,108.77h-1.57v-22.45h1.57v22.45Z"/>
      <path class="cls-1" d="M561.62,96.17h-8.11v6.26h-1.59v-7.6h8.12v-5.04h-8.2v-1.37h9.78v7.76ZM558.72,101.93c1.53-.1,3.14-.28,4.82-.55l.16,1.37c-1.73.26-3.38.45-4.92.55-1.54.11-3.29.16-5.24.16h-1.62v-1.38h1.62c1.91,0,3.63-.05,5.17-.15ZM568.28,99.05h-5.31v-1.36h5.31v1.36ZM568.46,92.93h-5.28v-1.37h5.28v1.37ZM569.48,108.77h-1.59v-22.45h1.59v22.45Z"/>
      <path class="cls-1" d="M593.92,100.57h-20.4v-1.35h20.4v1.35ZM582.94,93c-.87,1.06-1.98,1.95-3.32,2.65s-2.73,1.19-4.17,1.47l-.65-1.28c1.24-.2,2.48-.61,3.73-1.22s2.28-1.36,3.09-2.25c.81-.89,1.22-1.85,1.22-2.86v-1.05h1.41v1.05c0,1.27-.44,2.44-1.31,3.5ZM591.94,89.15h-16.48v-1.33h16.48v1.33ZM584.48,108.72h-1.56v-8.68h1.56v8.68ZM585.82,92.37c.82.89,1.85,1.64,3.1,2.25s2.49,1.02,3.73,1.22l-.62,1.28c-1.45-.28-2.84-.77-4.19-1.46s-2.45-1.58-3.32-2.65c-.87-1.07-1.3-2.24-1.3-3.51v-1.05h1.38v1.05c0,1.02.41,1.97,1.22,2.86Z"/>
      <path class="cls-1" d="M601.53,97.33c-.45,1.42-1.09,2.69-1.9,3.81-.81,1.12-1.74,2-2.79,2.63l-1.05-1.21c.99-.58,1.88-1.37,2.66-2.39.78-1.02,1.39-2.15,1.83-3.41.44-1.26.65-2.52.65-3.78v-4.49h1.28v4.49c0,1.47-.23,2.92-.68,4.34ZM603.09,96.49c.42,1.19,1,2.28,1.75,3.26.75.98,1.6,1.75,2.56,2.31l-.95,1.23c-1.03-.62-1.94-1.48-2.73-2.58s-1.4-2.33-1.83-3.68c-.44-1.35-.65-2.72-.65-4.1v-4.43h1.24v4.43c0,1.18.21,2.36.62,3.55ZM609.47,95.91h-4.58v-1.4h4.58v1.4ZM610.49,107.57h-1.51v-20.72h1.51v20.72ZM615.12,108.74h-1.56v-22.41h1.56v22.41Z"/>
      <path class="cls-1" d="M638.98,105.77h-20.52v-1.37h20.52v1.37ZM632.87,88.56c1.23.47,2.18,1.13,2.87,1.99.69.86,1.03,1.86,1.03,2.99s-.34,2.1-1.03,2.96-1.64,1.52-2.87,1.99c-1.23.47-2.63.71-4.21.71s-2.96-.23-4.2-.71c-1.23-.47-2.19-1.13-2.88-1.99-.69-.85-1.04-1.84-1.04-2.96s.34-2.13,1.04-2.99c.69-.86,1.65-1.52,2.88-1.99,1.23-.47,2.63-.7,4.2-.7s2.99.24,4.21.7ZM625.27,89.72c-1,.36-1.78.88-2.35,1.54-.57.66-.85,1.42-.85,2.28s.29,1.6.86,2.26c.57.66,1.35,1.18,2.35,1.55s2.12.56,3.38.56,2.39-.19,3.39-.56c1-.37,1.78-.89,2.35-1.55.57-.66.85-1.41.85-2.26s-.28-1.61-.85-2.28c-.57-.67-1.35-1.18-2.35-1.54-1-.36-2.13-.54-3.39-.53-1.26,0-2.39.17-3.39.53ZM625.27,104.79h-1.56v-6.86h1.56v6.86ZM633.71,104.79h-1.61v-6.86h1.61v6.86Z"/>
      <path class="cls-1" d="M642.46,106.71c-.21-.13-.38-.29-.5-.5-.12-.21-.18-.43-.18-.67s.06-.47.18-.69c.12-.21.28-.38.5-.5.21-.12.44-.18.69-.18s.46.06.67.18c.21.12.38.28.5.5.12.21.18.44.18.69s-.06.46-.18.67c-.12.21-.28.38-.5.5-.21.13-.44.19-.69.19s-.46-.06-.67-.19Z"/>
    </g>
  </g>
</svg>