<?xml version="1.0" encoding="UTF-8"?>
<svg id="_레이어_2" data-name="레이어 2" xmlns="http://www.w3.org/2000/svg" viewBox="0 0 98.39 98.39">
  <defs>
    <style>
      .cls-1 {
        fill: #ef7d40;
      }
    </style>
  </defs>
  <g id="_레이어_1-2" data-name="레이어 1">
    <path class="cls-1" d="M98.39,45.93v6.53c-.11.2-.15.56-.18.88-2.02,23.81-21.05,42.88-44.86,44.88-.33.03-.69.05-.89.16h-6.53c-11.54-.96-22.37-5.61-30.82-13.76C4.69,74.57-.78,60.57.09,46.27,1.6,21.44,21.45,1.61,46.28.09c1.92-.12,3.93-.13,5.81,0,25.09,1.6,44.34,21.27,46.3,45.85ZM47.24,32.44V15.73s-12.73-9.27-12.73-9.27c-8.68,3.06-15.96,8.4-21.41,15.59l4.89,14.93,15.93,5.16,13.33-9.7ZM64.53,42.15l15.9-5.17,4.88-14.92c-5.47-7.22-12.88-12.64-21.45-15.58l-12.69,9.27v16.72s13.36,9.68,13.36,9.68ZM27.95,75.13l9.82-13.51-5.09-15.72-15.91-5.17-12.75,9.27c.14,9.04,2.97,17.7,8.19,25.16l15.74-.03ZM86.2,75.15c5.21-7.44,8.03-16.11,8.18-25.15l-12.74-9.27-15.91,5.16-5.11,15.7,9.86,13.56h15.71ZM62.43,92.44l4.85-15-9.81-13.49h-16.54s-9.82,13.5-9.82,13.5l4.9,15.05c8.74,2.59,17.85,2.63,26.42-.06Z"/>
  </g>
</svg>