<?xml version="1.0" encoding="UTF-8"?>
<svg id="_레이어_2" data-name="레이어 2" xmlns="http://www.w3.org/2000/svg" viewBox="0 0 125.06 73.07">
  <defs>
    <style>
      .cls-1 {
        fill: #4d4c4c;
      }
    </style>
  </defs>
  <g id="_레이어_1-2" data-name="레이어 1">
    <g>
      <path class="cls-1" d="M103.27,23.72c-18.34,5.33-42.53,5.77-61.42,3.78-8.56-.9-26.51-3.67-32.26-10.25-1.41-1.62-1.54-3.83-.22-5.55C14.09,5.54,30.04,2.65,37.59,1.65c15.2-2.02,30.46-2.16,45.72-.54,8.74.92,20.7,2.98,28.33,7.16,2.95,1.61,6.77,4.97,4.16,8.55-2.54,3.49-8.37,5.7-12.52,6.9ZM88.73,19.95c4.04-.6,14.52-2.79,17.13-5.7-4-3.33-14.28-5.25-19.32-5.93-15.88-2.13-31.87-2.1-47.76-.03-5.1.66-15.5,2.59-19.58,5.95,3.18,3.1,13.29,5.14,17.66,5.78,17.18,2.49,34.54,2.49,51.88-.07Z"/>
      <path class="cls-1" d="M124.16,56.33c-.73-.86-1.57-1.52-2.55-2.26l-3.97-31.76c-7.47,5.75-18.18,7.78-27.27,9.34-19.16,2.76-38.5,2.68-57.63-.28-8.51-1.53-18.36-3.64-25.33-9.04l-3.96,31.74c-.98.76-1.82,1.41-2.55,2.27-1.32,1.55-1.14,3.66.23,5.15,3.37,3.65,10.73,5.83,15.6,7.01,20.28,4.88,46.72,5.4,67.47,3.7,9.74-.8,33.13-3.48,39.75-10.72,1.35-1.48,1.52-3.59.21-5.14ZM66.32,40.15c1.19-.56,2.54-.25,3.37.78,1.88,2.35.88,6.8-1.91,8.12-1.19.56-2.49.28-3.32-.69-1.97-2.28-1.01-6.86,1.86-8.22ZM55.36,40.86c.81-.88,2.04-1.14,3.13-.63,2.84,1.33,3.61,6.07,1.47,8.18-1.4,1.38-3.37.83-4.51-.65-1.49-1.93-1.76-5.08-.09-6.9ZM50.85,54.74c-1.51-.74-2.32-2.26-2.62-3.86v-1.15c.19-1.04.65-2.04,1.67-2.5.88-.4,1.88-.26,2.71.28,1.83,1.18,2.71,3.53,2.07,5.6-.25.82-.82,1.42-1.44,1.71-.82.38-1.63.29-2.39-.08ZM68.68,66.08h-1.23c-2.78-.53-4.48-1.62-7.49-.76-1.17.33-2.1.57-3.19.76h-.99c-.6-.11-1.19-.3-1.71-.66-2.14-1.49-2.28-4.12-1.12-6.35.53-1.02,1.28-1.8,2.13-2.56,2.73-2.44,3.7-6.76,7.51-6.4,1.31.12,2.43.69,3.26,1.73,1.81,2.3,1.57,2.93,4.14,5.28,1.07.98,1.82,2.21,2.16,3.58.65,2.58-.96,4.88-3.48,5.38ZM76.82,50.81c-.31,1.57-1.13,3.02-2.57,3.82-.77.42-1.63.59-2.47.31-.97-.33-1.63-1.18-1.81-2.23-.37-2.11.73-4.3,2.62-5.29.85-.45,1.8-.51,2.64-.12.97.46,1.37,1.39,1.59,2.37v1.15Z"/>
    </g>
  </g>
</svg>