<?xml version="1.0" encoding="UTF-8"?>
<svg id="_레이어_2" data-name="레이어 2" xmlns="http://www.w3.org/2000/svg" viewBox="0 0 111.44 90.62">
  <defs>
    <style>
      .cls-1 {
        fill: #4d4c4c;
      }
    </style>
  </defs>
  <g id="_레이어_1-2" data-name="레이어 1">
    <g>
      <path class="cls-1" d="M111.33,72.98c-.02,7.17-18.11,12.98-24.41,14.33-20.35,4.38-41.29,4.41-61.68.17-7.06-1.47-13.22-3.63-19.33-7.34-1.9-1.16-5.76-4.34-5.76-6.84L.02,26.88c5.89,5.2,12.24,8.34,19.93,10.26,23.45,5.88,48.34,5.92,71.79-.06,7.6-1.94,13.78-5.02,19.7-10.23l-.1,46.13ZM80.88,65.7c-8.84-11.13-23.79-13.01-35.6-5.13-5.6,3.74-4.62-5.15-14.27-4.37-.85,3.51.02,6.9,2.38,9.69-2.14,2.84-2.97,6.21-2.21,9.95,9.2,1.27,8.46-6.87,13.02-4.73,13.44,6.31,26.41,6.88,36.68-5.4Z"/>
      <path class="cls-1" d="M90.44,4.24c-22.67-5.64-46.48-5.63-69.21-.08C14.55,5.79-.1,11.18,0,18.82c.11,8.23,16.58,13.63,23.72,15.19,21.39,4.66,43.51,4.76,65.24-.33,7.37-1.73,22.41-7.04,22.44-14.87.03-7.7-14.27-12.9-20.96-14.57ZM98.58,22.82c-23.59,15.01-87.93,8.46-88.21-4.02-.11-4.81,10.99-8.51,15.29-9.47,19.28-4.33,39.21-4.4,58.55-.37,4.62.96,16.91,4.68,16.86,9.83-.01,1.15-1.31,3.28-2.48,4.03Z"/>
      <circle class="cls-1" cx="69.57" cy="65.86" r="2.3"/>
      <path class="cls-1" d="M48.45,15.12h-4.72c-2.27-1.9-6.69-3.19-11.78-3.19-7.4,0-13.39,2.73-13.39,6.1s6,6.1,13.39,6.1c6.42,0,11.78-2.06,13.08-4.8h3.41c1.16,0,2.1-.95,2.1-2.1s-.95-2.1-2.1-2.1ZM31.95,20.77c-3.85,0-6.98-1.42-6.98-3.18s3.12-3.18,6.98-3.18,6.98,1.42,6.98,3.18-3.12,3.18-6.98,3.18Z"/>
    </g>
  </g>
</svg>